<?xml version="1.0" ?><!DOCTYPE svg  PUBLIC '-//W3C//DTD SVG 1.1//EN'  'http://www.w3.org/Graphics/SVG/1.1/DTD/svg11.dtd'><svg enable-background="new 0 0 130 130" id="Layer_1" version="1.1" viewBox="0 0 130 130" xml:space="preserve" xmlns="http://www.w3.org/2000/svg" xmlns:xlink="http://www.w3.org/1999/xlink"><g><circle cx="65" cy="65.00009" fill="#F34B50" r="64"/><g><path d="M106.61756,72.0944h11.04467c0.55517,0,1.00522,0.45005,1.00522,1.00522l0,0    c0,0.55517-0.45005,1.00522-1.00522,1.00522h-11.04467c-0.55296,0-1.00533-0.45238-1.00533-1.00524    C105.61223,72.54672,106.0646,72.0944,106.61756,72.0944z" fill="#E53946"/><path d="M126.10539,73.09972c0,0.55517-0.45006,1.00522-1.00523,1.00522l-4.1234-0.00001    c-0.55279,0-1.00516-0.45232-1.00516-1.0052s0.45237-1.00524,1.00516-1.00524h4.1234    C125.65533,72.0945,126.10539,72.54456,126.10539,73.09972L126.10539,73.09972z" fill="#E53946"/><path d="M93.2651,10.84667h5.82764c-1.1106-0.70062-2.23706-1.37769-3.39233-2.01044h-2.4353    c-0.55493,0-1.00513,0.45001-1.00513,1.00519S92.71017,10.84667,93.2651,10.84667z" fill="#E53946"/><path d="M71.1185,9.84142c0,0.55517-0.45006,1.00522-1.00522,1.00522h-6.32155    c-0.55278,0-1.00515-0.45233-1.00515-1.0052s0.45237-1.00524,1.00515-1.00524h6.32155    C70.66844,8.8362,71.1185,9.28625,71.1185,9.84142L71.1185,9.84142z" fill="#E53946"/><path d="M73.98642,9.84142L73.98642,9.84142c0-0.55517,0.45005-1.00522,1.00522-1.00522h12.65654    c0.55517,0,1.00522,0.45005,1.00522,1.00522v0c0,0.55517-0.45005,1.00522-1.00522,1.00522H74.99164    C74.43647,10.84664,73.98642,10.39659,73.98642,9.84142z" fill="#E53946"/><path d="M29.70211,19.70904c0.55518,0,1.00513-0.45001,1.00513-1.00519s-0.44995-1.00525-1.00513-1.00525h-7.8103    c-0.71777,0.65454-1.42139,1.32428-2.10864,2.01044H29.70211z" fill="#E53946"/><path d="M38.7993,18.70393c0,0.55517-0.45005,1.00522-1.00523,1.00522l-4.1234-0.00001    c-0.55278,0-1.00516-0.45233-1.00516-1.0052s0.45238-1.00524,1.00516-1.00524l4.1234,0.00001    C38.34924,17.69871,38.7993,18.14876,38.7993,18.70393L38.7993,18.70393z" fill="#E53946"/><path d="M11.96871,88.97485H5.66012c0.27344,0.67627,0.55884,1.34583,0.85449,2.01044h5.4541    c0.55518,0,1.00513-0.45001,1.00513-1.00519C12.97384,89.42486,12.52389,88.97485,11.96871,88.97485z" fill="#E53946"/><path d="M16.48834,90.98525h-0.94628c-0.55517,0-1.00522-0.45005-1.00522-1.00522l0,0    c0-0.55517,0.45005-1.00522,1.00522-1.00522h0.94628c0.55513,0,1.00515,0.45006,1.00515,1.0052v0.00005    C17.49349,90.53519,17.04347,90.98525,16.48834,90.98525z" fill="#E53946"/><path d="M49.28297,76.2828L49.28297,76.2828c0,0.55518-0.45005,1.00523-1.00522,1.00523H34.59181    c-0.55517,0-1.00522-0.45005-1.00522-1.00522V76.2828c0-0.55516,0.45005-1.00522,1.00522-1.00522h13.68594    C48.83292,75.27758,49.28297,75.72764,49.28297,76.2828z" fill="#E53946"/><path d="M48.60971,117.50784L48.60971,117.50784c0,0.55517-0.45005,1.00522-1.00522,1.00522h-3.28115    c-0.55517,0-1.00522-0.45005-1.00522-1.00521v-0.00001c0-0.55517,0.45005-1.00522,1.00522-1.00522h3.28115    C48.15966,116.50262,48.60971,116.95267,48.60971,117.50784z" fill="#E53946"/><path d="M60.35038,117.50784L60.35038,117.50784c0,0.55517-0.45005,1.00522-1.00522,1.00522h-7.24497    c-0.55517,0-1.00522-0.45005-1.00522-1.00521v-0.00001c0-0.55517,0.45005-1.00522,1.00522-1.00522h7.24497    C59.90033,116.50262,60.35038,116.95267,60.35038,117.50784z" fill="#E53946"/><path d="M39.91634,116.50262h0.51344c0.55516,0,1.00522,0.45005,1.00522,1.00522v0.00001    c0,0.55516-0.45005,1.00522-1.00522,1.00522h-0.51344c-0.55278,0-1.00515-0.45233-1.00515-1.0052    C38.91119,116.95499,39.36356,116.50262,39.91634,116.50262z" fill="#E53946"/><path d="M110.21481,37.67082L110.21481,37.67082c0-0.55517,0.45005-1.00522,1.00522-1.00522h1.67143    c0.55517,0,1.00522,0.45005,1.00522,1.00521v0c0,0.55517-0.45005,1.00522-1.00522,1.00522h-1.67143    C110.66486,38.67604,110.21481,38.22599,110.21481,37.67082z" fill="#E53946"/><path d="M117.56149,38.67602h5.77051c-0.30518-0.67554-0.61621-1.3476-0.94409-2.01044h-4.82642    c-0.55518,0-1.00537,0.45007-1.00537,1.00525S117.00631,38.67602,117.56149,38.67602z" fill="#E53946"/><path d="M9.38231,53.70363c0.00004,0.55517-0.44999,1.00522-1.00516,1.00522H6.41129    c-0.55278,0-1.00519-0.45233-1.00522-1.0052c-0.00004-0.55287,0.45231-1.00524,1.00509-1.00524h1.96586    C8.93218,52.69841,9.38227,53.14846,9.38231,53.70363L9.38231,53.70363z" fill="#E53946"/><path d="M11.0147,53.70363L11.0147,53.70363c-0.00004-0.55517,0.44999-1.00522,1.00516-1.00522h5.91962    c0.55517,0,1.00525,0.45005,1.00529,1.00522l0,0c0.00004,0.55517-0.44999,1.00522-1.00516,1.00522h-5.91962    C11.46482,54.70885,11.01474,54.2588,11.0147,53.70363z" fill="#E53946"/><path d="M96.29962,49.59035c0.00004,0.55516-0.44999,1.00521-1.00516,1.00521h-1.96586    c-0.55279,0-1.00519-0.45233-1.00523-1.0052s0.45231-1.00524,1.00509-1.00524h1.96586    C95.8495,48.58512,96.29958,49.03518,96.29962,49.59035L96.29962,49.59035z" fill="#E53946"/><path d="M97.93201,49.59035L97.93201,49.59035c-0.00004-0.55517,0.44999-1.00522,1.00516-1.00522l5.91962,0    c0.55517,0,1.00526,0.45005,1.00529,1.00521v0c0.00003,0.55517-0.44999,1.00522-1.00516,1.00522h-5.91962    C98.38213,50.59557,97.93205,50.14551,97.93201,49.59035z" fill="#E53946"/><path d="M44.30247,39.68126c0.00004,0.55516-0.44999,1.00522-1.00516,1.00522h-1.96586    c-0.55278,0-1.00519-0.45233-1.00523-1.0052c-0.00003-0.55287,0.45231-1.00524,1.00509-1.00524h1.96586    C43.85235,38.67604,44.30243,39.12609,44.30247,39.68126L44.30247,39.68126z" fill="#E53946"/><path d="M45.93486,39.68126L45.93486,39.68126c-0.00004-0.55517,0.44999-1.00522,1.00516-1.00522h5.91962    c0.55517,0,1.00525,0.45005,1.00529,1.00522l0,0c0.00004,0.55517-0.44999,1.00522-1.00516,1.00522h-5.91962    C46.38498,40.68648,45.9349,40.23643,45.93486,39.68126z" fill="#E53946"/><path d="M91.51839,111.04722c0.00004,0.55517-0.44999,1.00522-1.00516,1.00522h-1.96586    c-0.55279,0-1.00519-0.45233-1.00523-1.0052c-0.00004-0.55287,0.45231-1.00524,1.00509-1.00524h1.96586    C91.06827,110.042,91.51835,110.49205,91.51839,111.04722L91.51839,111.04722z" fill="#E53946"/><path d="M93.15078,111.04722L93.15078,111.04722c-0.00004-0.55517,0.44999-1.00522,1.00516-1.00522h5.91962    c0.55517,0,1.00526,0.45005,1.00529,1.00522l0,0c0.00004,0.55517-0.44999,1.00522-1.00516,1.00522h-5.91962    C93.6009,112.05244,93.15082,111.60239,93.15078,111.04722z" fill="#E53946"/></g><g><path d="M39.93721,50.88266V81.8659H28.45468c-1.84118,0-3.33375-1.49257-3.33375-3.33375V54.2164    c0-1.84118,1.49257-3.33375,3.33375-3.33375H39.93721z" fill="#E53946"/><polygon fill="#E53946" points="69.3821,27.962 69.3821,104.78655 39.93721,81.8659 39.93721,50.88266   "/><path d="M74.5868,26.33853v79.84912c0,1.43379-1.16195,2.59544-2.60781,2.59544    c-1.43349,0-2.59544-1.16164-2.59544-2.59544V26.33853c0-1.44602,1.16195-2.60781,2.59544-2.60781    c0.72927,0,1.37194,0.29659,1.84142,0.76638C74.2902,24.96659,74.5868,25.60926,74.5868,26.33853z" fill="#E53946"/><g><path d="M85.03952,82.29681c0.58042,0,1.16084-0.22153,1.6039-0.66432     c4.10723-4.10667,6.36908-9.56719,6.36908-15.37579c0-5.80805-2.26185-11.26857-6.36908-15.37552     c-0.88613-0.88558-2.32167-0.88558-3.2078,0c-0.88613,0.88586-0.88613,2.32222,0,3.20835     c3.24989,3.24989,5.03988,7.57118,5.03988,12.16744c0,4.59627-1.78999,8.91755-5.03988,12.16717     c-0.88613,0.88586-0.88613,2.32222,0,3.20808C83.87869,82.07529,84.45911,82.29681,85.03952,82.29681z" fill="#E53946"/><path d="M95.2079,92.46547c0.58042,0,1.16084-0.22153,1.6039-0.66432     c6.82323-6.82294,10.58154-15.89474,10.58043-25.54445c0-9.64944-3.7572-18.72095-10.58043-25.54417     c-0.88614-0.88558-2.32167-0.88558-3.2078,0c-0.88614,0.88586-0.88614,2.32222,0,3.20835     c5.96589,5.96589,9.25123,13.89845,9.25123,22.33582c0,8.43765-3.28534,16.3702-9.25123,22.3361     c-0.88614,0.88586-0.88614,2.32222,0,3.20808C94.04707,92.24394,94.62749,92.46547,95.2079,92.46547z" fill="#E53946"/></g></g><g><path d="M38.54782,49.49326V80.4765H27.06529c-1.84118,0-3.33374-1.49257-3.33374-3.33374V52.82701    c0-1.84118,1.49257-3.33374,3.33374-3.33374H38.54782z" fill="#4A749B"/><path d="M38.54975,49.49084v30.98323H27.06851c-1.37164,0-2.55833-0.8403-3.06492-2.02683    c0.39556,0.17303,0.8403,0.272,1.31009,0.272h1.44768c5.54138,0,10.03356-4.49218,10.03356-10.03356V49.49084H38.54975z" fill="#386384"/><polygon fill="#EDEDED" points="67.99271,26.5726 67.99271,103.39716 38.54782,80.4765 38.54782,49.49326   "/><path d="M67.98816,26.57799v76.82146L38.54975,80.47408v-0.43252l6.67849,4.84274    c8.66779,6.28524,20.80716,0.09283,20.80716-10.61394V28.09808L67.98816,26.57799z" fill="#DDDCE0"/><path d="M73.1974,24.94914v79.84912c0,1.4338-1.16194,2.59544-2.60781,2.59544    c-1.43349,0-2.59544-1.16164-2.59544-2.59544V24.94914c0-1.44602,1.16194-2.60781,2.59544-2.60781    c0.72927,0,1.37194,0.29659,1.84143,0.76638C72.9008,23.57719,73.1974,24.21987,73.1974,24.94914z" fill="#FFFFFF"/><path d="M73.20348,24.94671v79.84911c0,1.4338-1.17432,2.59544-2.60781,2.59544    c-0.91453,0-1.71772-0.46964-2.18751-1.17402c0.40793,0.25948,0.90216,0.40778,1.42142,0.40778    c1.44587,0,2.60751-1.16179,2.60751-2.59528V24.18033c0-0.53134-0.16051-1.01334-0.42-1.42112    c0.14815,0.09881,0.29659,0.22237,0.42,0.34608C72.90688,23.57477,73.20348,24.21745,73.20348,24.94671z" fill="#EDEDED"/><path d="M49.93263,44.62075c0.34166,0.46498,0.24506,1.13605-0.22668,1.48268l-6.05804,4.45131    c-0.4649,0.34159-1.14102,0.2383-1.48268-0.22668c-0.34669-0.47182-0.23822-1.14108,0.22668-1.48268l6.05804-4.4513    C48.9217,44.04745,49.58595,44.14893,49.93263,44.62075z" fill="#FFFFFF"/><path d="M61.67931,35.98958c0.34166,0.46498,0.24523,1.13593-0.22668,1.48268l-8.13649,5.97849    c-0.4649,0.3416-1.13417,0.23327-1.47583-0.23171c-0.34668-0.47183-0.24506-1.13605,0.21984-1.47765l8.13649-5.97849    C60.66854,35.41615,61.33262,35.51776,61.67931,35.98958z" fill="#FFFFFF"/><path d="M25.90847,60.10112c-0.45803,0-0.84191-0.37721-0.84191-0.84191l0-5.96751    c0-0.45795,0.38387-0.84191,0.84191-0.84191c0.46478,0,0.84191,0.38396,0.84191,0.84191v5.96751    C26.75038,59.72391,26.37325,60.10112,25.90847,60.10112z" fill="#6894AF"/><path d="M25.90847,71.67226c-0.45803,0-0.84191-0.37705-0.84191-0.84191v-8.01489    c0-0.45795,0.38387-0.83517,0.84191-0.83517c0.46478,0,0.84191,0.37721,0.84191,0.83517v8.01489    C26.75038,71.2952,26.37325,71.67226,25.90847,71.67226z" fill="#6894AF"/><g><path d="M83.65013,80.90742c0.58041,0,1.16084-0.22153,1.6039-0.66432     c4.10723-4.10667,6.36909-9.56719,6.36909-15.3758c0-5.80805-2.26186-11.26857-6.36909-15.37551     c-0.88613-0.88558-2.32166-0.88558-3.2078,0c-0.88613,0.88585-0.88613,2.32222,0,3.20835     c3.24989,3.24989,5.03989,7.57118,5.03989,12.16744s-1.78999,8.91754-5.03989,12.16716     c-0.88613,0.88586-0.88613,2.32222,0,3.20808C82.4893,80.68589,83.06971,80.90742,83.65013,80.90742z" fill="#FAD553"/><path d="M93.81851,91.07608c0.58041,0,1.16083-0.22153,1.6039-0.66432     c6.82323-6.82295,10.58154-15.89474,10.58043-25.54446c0-9.64943-3.7572-18.72095-10.58043-25.54417     c-0.88613-0.88558-2.32167-0.88558-3.2078,0c-0.88613,0.88586-0.88613,2.32222,0,3.20836     c5.96589,5.96589,9.25123,13.89845,9.25123,22.33582c0,8.43765-3.28534,16.37021-9.25123,22.3361     c-0.88613,0.88586-0.88613,2.32222,0,3.20808C92.65768,90.85455,93.23809,91.07608,93.81851,91.07608z" fill="#FAD553"/></g><g><path d="M91.61775,64.86509c0,5.80865-2.26173,11.27109-6.36459,15.37424     c-0.44505,0.44475-1.02587,0.66742-1.60669,0.66742s-1.16164-0.22267-1.59431-0.66742     c-0.16051-0.16082-0.29659-0.34608-0.39556-0.54385c0.32133,0.17303,0.67979,0.25963,1.03824,0.25963     c0.58082,0,1.16164-0.22252,1.60668-0.66741c4.10286-4.10316,6.36459-9.56559,6.36459-15.3741     c0-5.42562-1.9772-10.55434-5.58614-14.55853c0.06186,0.02474,0.11134,0.07407,0.17319,0.13578     C89.35602,53.594,91.61775,59.05643,91.61775,64.86509z" fill="#FAB941"/><path d="M106.0034,64.86509c0,9.65203-3.75708,18.7234-10.57908,25.54539     c-0.44505,0.44489-1.02586,0.66742-1.60669,0.66742c-0.58082,0-1.16164-0.22253-1.60668-0.66742     c-0.17289-0.16067-0.2966-0.35844-0.39526-0.55608c0.32104,0.17289,0.69186,0.25948,1.05031,0.25948     c0.58082,0,1.14927-0.22252,1.59431-0.65504c6.822-6.82201,10.59145-15.90559,10.57908-25.54525     c0-9.29374-3.48522-18.05613-9.84981-24.77917c0.08629,0.04948,0.16051,0.11118,0.23474,0.18526     C102.24632,46.14169,106.0034,55.21305,106.0034,64.86509z" fill="#FAB941"/></g></g></g></svg>