<?xml version="1.0" ?><svg id="Layer_1" style="enable-background:new 0 0 96 96;" version="1.1" viewBox="0 0 96 96" xml:space="preserve" xmlns="http://www.w3.org/2000/svg" xmlns:xlink="http://www.w3.org/1999/xlink"><style type="text/css">
	.st0{fill:#334D5C;}
	.st1{fill:#FFFFFF;}
	.st2{fill:#44C4A1;}
	.st3{fill:#FCD462;}
	.st4{fill:#E56353;}
	.st5{fill:#3EA69B;}
	.st6{fill:#F6C358;}
	.st7{fill:#D15241;}
	.st8{fill:#E05B49;}
	.st9{fill:#DC8744;}
	.st10{fill:#64798A;}
	.st11{fill:#3A556A;}
	.st12{fill:#2F4859;}
	.st13{fill:#EBF0F3;}
	.st14{fill:#27A2DB;}
	.st15{fill:#45B39C;}
	.st16{fill:#EA8953;}
	.st17{fill:#31978C;}
	.st18{fill:#EFC84A;}
	.st19{fill:#CE412D;}
	.st20{fill:#E1E6E9;}
	.st21{fill:#D5D6DB;}
	.st22{fill:#2D93BA;}
	.st23{fill:#6E8696;}
	.st24{fill:#D67838;}
	.st25{fill:#1C75A1;}
	.st26{fill:#54C5ED;}
	.st27{filter:url(#Adobe_OpacityMaskFilter);}
	.st28{filter:url(#Adobe_OpacityMaskFilter_1_);}
	.st29{mask:url(#SVGID_1_);fill:url(#SVGID_2_);}
	.st30{fill:url(#SVGID_3_);}
	.st31{fill:#82D6F4;}
	.st32{fill:#324C5E;}
	.st33{fill:none;}
	.st34{fill:#34BDE2;}
	.st35{fill:#4CC3ED;}
</style><g><path class="st16" d="M87,85.5c-12.1,14.6-63.2,13.3-76.8,0c-13.6-13.3-13.6-61.8,0-75.1C23.8-2.8,74.9-4.1,87,10.5   C99,25.1,99,70.9,87,85.5z"/><g><rect class="st1" height="55" width="47.1" x="24.5" y="20.5"/><rect class="st14" height="39.1" transform="matrix(-1.836970e-16 1 -1 -1.836970e-16 92.0331 -3.9673)" width="39.1" x="28.5" y="24.5"/><g><circle class="st34" cx="39.2" cy="32.5" r="5.2"/><circle class="st35" cx="39.2" cy="32.5" r="4.1"/><circle class="st1" cx="39.2" cy="32.5" r="2.9"/></g><polygon class="st3" points="42.7,40 28.5,52.5 28.5,63.6 48.9,63.6 54.2,63.6 45.7,46   "/><polygon class="st9" points="54.2,63.6 62,63.6 45.7,46   "/><polygon class="st6" points="67.5,41.4 57.5,31.5 45.7,46 62,63.6 67.5,63.6   "/></g></g></svg>