<?xml version="1.0" ?><!DOCTYPE svg  PUBLIC '-//W3C//DTD SVG 1.1//EN'  'http://www.w3.org/Graphics/SVG/1.1/DTD/svg11.dtd'><svg height="512px" style="enable-background:new 0 0 512 512;" version="1.1" viewBox="0 0 512 512" width="512px" xml:space="preserve" xmlns="http://www.w3.org/2000/svg" xmlns:xlink="http://www.w3.org/1999/xlink"><g id="_x32_93_x2C__Frequency_x2C__News_x2C__Radio"><g><path d="M439.5,126.001H406h-30H206h-40h-30H96H72.5c-25.68,0-46.5,20.82-46.5,46.5v73.5h460v-73.5    C486,146.821,465.18,126.001,439.5,126.001z" style="fill:#2C3649;"/><polygon points="26,246.001 26,446.001 76,446.001 166,446.001 246,446.001 346,446.001 436,446.001     486,446.001 486,246.001   " style="fill:#3D4966;"/><rect height="30" style="fill:#FF4F4F;" width="40" x="166" y="96.001"/><rect height="30" style="fill:#FF4F4F;" width="40" x="96" y="96.001"/><polygon points="166,206.001 86,206.001 86,166.001 426,166.001 426,206.001   " style="fill:#FFD5AB;"/><rect height="30" style="fill:#2C3649;" width="90" x="346" y="446.001"/><rect height="30" style="fill:#2C3649;" width="90" x="76" y="446.001"/><path d="M446,46.001c11.05,0,20,8.95,20,20s-8.95,20-20,20c-11.04,0-20-8.95-20-20    S434.96,46.001,446,46.001z" style="fill:#30C9B0;"/><path d="M51,46.001c8.29,0,15,6.72,15,15s-6.71,15-15,15c-8.28,0-15-6.72-15-15S42.72,46.001,51,46.001z" style="fill:#30C9B0;"/><rect height="40" style="fill:#D3643D;" width="50" x="396" y="286.001"/><path d="M431,376.001c8.29,0,15,6.72,15,15c0,4.14-1.68,7.89-4.391,10.6c-2.72,2.721-6.459,4.4-10.609,4.4    h-30c-8.28,0-15-6.72-15-15c0-4.14,1.68-7.89,4.39-10.6c2.72-2.721,6.47-4.4,10.61-4.4H431z" style="fill:#FF7D46;"/><path d="M331,376.001c8.29,0,15,6.72,15,15c0,4.14-1.68,7.89-4.391,10.6c-2.72,2.721-6.459,4.4-10.609,4.4    h-30c-8.28,0-15-6.72-15-15c0-4.14,1.68-7.89,4.39-10.6c2.72-2.721,6.47-4.4,10.61-4.4H331z" style="fill:#FF7D46;"/><rect height="40" style="fill:#FF7D46;" width="110" x="286" y="286.001"/><path d="M78.57,386.001h114.86l0.01,0.01c-12.65,18.13-33.66,29.99-57.44,29.99    c-23.78,0-44.79-11.86-57.44-29.99L78.57,386.001z" style="fill:#D3A235;"/><path d="M206,346.001H66c0-14.88,4.64-28.67,12.56-40.01l0.01,0.01h114.86l0.01-0.01    C201.36,317.331,206,331.121,206,346.001z" style="fill:#D3A235;"/><path d="M66,346.001h140c0,14.88-4.64,28.67-12.56,40.01l-0.01-0.01H78.57l-0.01,0.01    C70.64,374.671,66,360.881,66,346.001z" style="fill:#FBC640;"/><path d="M136,276.001c23.78,0,44.79,11.86,57.44,29.99l-0.01,0.01H78.57l-0.01-0.01    C91.21,287.861,112.22,276.001,136,276.001z" style="fill:#FBC640;"/><path d="M376,26.001c5.52,0,10,4.48,10,10s-4.48,10-10,10s-10-4.48-10-10S370.48,26.001,376,26.001z"/><path d="M246,286.001c5.52,0,10,4.48,10,10s-4.48,10-10,10s-10-4.48-10-10S240.48,286.001,246,286.001z"/><path d="M106,46.001c5.52,0,10,4.48,10,10s-4.48,10-10,10s-10-4.48-10-10S100.48,46.001,106,46.001z"/><path d="M486,456.001h-50c-5.523,0-10-4.478-10-10s4.477-10,10-10h40v-263.5c0-20.126-16.374-36.5-36.5-36.5H406    c-5.523,0-10-4.477-10-10s4.477-10,10-10h33.5c31.154,0,56.5,25.346,56.5,56.5v273.5C496,451.523,491.523,456.001,486,456.001z"/><path d="M376,136.001H206c-5.523,0-10-4.477-10-10s4.477-10,10-10h170c5.523,0,10,4.477,10,10S381.523,136.001,376,136.001z"/><path d="M166,136.001h-30c-5.523,0-10-4.477-10-10s4.477-10,10-10h30c5.523,0,10,4.477,10,10S171.523,136.001,166,136.001z"/><path d="M76,456.001H26c-5.523,0-10-4.478-10-10v-273.5c0-31.154,25.346-56.5,56.5-56.5H96c5.523,0,10,4.477,10,10    s-4.477,10-10,10H72.5c-20.126,0-36.5,16.374-36.5,36.5v263.5h40c5.523,0,10,4.478,10,10S81.523,456.001,76,456.001z"/><path d="M346,456.001H166c-5.523,0-10-4.478-10-10s4.477-10,10-10h180c5.523,0,10,4.478,10,10S351.523,456.001,346,456.001z"/><path d="M486,256.001H26c-5.523,0-10-4.477-10-10s4.477-10,10-10h460c5.523,0,10,4.477,10,10S491.523,256.001,486,256.001z"/><path d="M426,216.001H86c-5.523,0-10-4.477-10-10v-40c0-5.523,4.477-10,10-10h340c5.523,0,10,4.477,10,10v40    C436,211.524,431.523,216.001,426,216.001z M96,196.001h320v-20H96V196.001z"/><path d="M166,486.001H76c-5.523,0-10-4.478-10-10v-30c0-5.522,4.477-10,10-10h90c5.523,0,10,4.478,10,10v30    C176,481.523,171.523,486.001,166,486.001z M86,466.001h70v-10H86V466.001z"/><path d="M436,486.001h-90c-5.523,0-10-4.478-10-10v-30c0-5.522,4.477-10,10-10h90c5.523,0,10,4.478,10,10v30    C446,481.523,441.523,486.001,436,486.001z M356,466.001h70v-10h-70V466.001z"/><path d="M136,136.001H96c-5.523,0-10-4.477-10-10v-30c0-5.523,4.477-10,10-10h40c5.523,0,10,4.477,10,10v30    C146,131.524,141.523,136.001,136,136.001z M106,116.001h20v-10h-20V116.001z"/><path d="M206,136.001h-40c-5.523,0-10-4.477-10-10v-30c0-5.523,4.477-10,10-10h40c5.523,0,10,4.477,10,10v30    C216,131.524,211.523,136.001,206,136.001z M176,116.001h20v-10h-20V116.001z"/><path d="M406,136.001h-30c-5.523,0-10-4.477-10-10v-15c0-13.785,11.215-25,25-25c6.675,0,12.953,2.603,17.68,7.328    c4.721,4.72,7.32,10.996,7.32,17.672v15C416,131.524,411.523,136.001,406,136.001z M386,116.001h10v-5    c0-1.799-0.916-2.983-1.461-3.529c-0.671-0.67-1.83-1.471-3.539-1.471c-2.757,0-5,2.243-5,5V116.001z"/><path d="M391.009,106.004c-0.759,0-1.528-0.087-2.3-0.268l-255-60c-5.376-1.265-8.708-6.649-7.444-12.025    c1.266-5.376,6.647-8.709,12.025-7.444l255,60c5.375,1.265,8.708,6.649,7.443,12.025    C399.65,102.897,395.543,106.004,391.009,106.004z"/><path d="M206,356.001H66c-5.523,0-10-4.478-10-10s4.477-10,10-10h140c5.523,0,10,4.478,10,10S211.523,356.001,206,356.001z"/><path d="M193.43,316.001H78.57c-5.523,0-10-4.478-10-10s4.477-10,10-10h114.86c5.523,0,10,4.478,10,10    S198.953,316.001,193.43,316.001z"/><path d="M193.43,396.001H78.57c-5.523,0-10-4.478-10-10s4.477-10,10-10h114.86c5.523,0,10,4.478,10,10    S198.953,396.001,193.43,396.001z"/><path d="M136,426.001c-26.13,0-50.669-12.811-65.641-34.268C60.966,378.284,56,362.47,56,346.001s4.966-32.283,14.361-45.735    c14.97-21.454,39.508-34.265,65.639-34.265s50.669,12.811,65.641,34.269C211.034,313.718,216,329.533,216,346.001    s-4.966,32.283-14.362,45.735C186.669,413.19,162.13,426.001,136,426.001z M136,286.001c-19.598,0-38.005,9.612-49.239,25.713    C79.72,321.794,76,333.649,76,346.001s3.72,24.207,10.758,34.284c11.237,16.104,29.644,25.716,49.242,25.716    s38.005-9.612,49.239-25.713C192.28,370.207,196,358.353,196,346.001s-3.72-24.206-10.758-34.284    C174.005,295.613,155.598,286.001,136,286.001z"/><path d="M446,336.001H286c-5.523,0-10-4.478-10-10v-40c0-5.522,4.477-10,10-10h160c5.523,0,10,4.478,10,10v40    C456,331.523,451.523,336.001,446,336.001z M296,316.001h140v-20H296V316.001z"/><path d="M396,336.001c-5.523,0-10-4.478-10-10v-40c0-5.522,4.477-10,10-10s10,4.478,10,10v40    C406,331.523,401.523,336.001,396,336.001z"/><path d="M331,416.001h-30c-13.785,0-25-11.215-25-25c0-6.676,2.6-12.951,7.318-17.671c4.726-4.726,11.006-7.329,17.682-7.329h30    c13.785,0,25,11.215,25,25c0,6.676-2.6,12.951-7.318,17.671C343.955,413.397,337.676,416.001,331,416.001z M301,386.001    c-1.799,0-2.989,0.922-3.539,1.471c-0.546,0.546-1.461,1.73-1.461,3.529c0,2.757,2.243,5,5,5h30c1.709,0,2.867-0.8,3.538-1.471    c0.546-0.547,1.462-1.73,1.462-3.529c0-2.757-2.243-5-5-5H301z"/><path d="M431,416.001h-30c-13.785,0-25-11.215-25-25c0-6.676,2.6-12.951,7.318-17.671c4.726-4.726,11.006-7.329,17.682-7.329h30    c13.785,0,25,11.215,25,25c0,6.676-2.6,12.951-7.318,17.671C443.955,413.397,437.676,416.001,431,416.001z M401,386.001    c-1.799,0-2.989,0.922-3.539,1.471c-0.546,0.546-1.461,1.73-1.461,3.529c0,2.757,2.243,5,5,5h30c1.709,0,2.867-0.8,3.538-1.471    c0.546-0.547,1.462-1.73,1.462-3.529c0-2.757-2.243-5-5-5H401z"/><path d="M166,216.001c-5.523,0-10-4.477-10-10v-10c0-5.523,4.477-10,10-10s10,4.477,10,10v10    C176,211.524,171.523,216.001,166,216.001z"/><path d="M446,96.001c-16.542,0-30-13.458-30-30s13.458-30,30-30s30,13.458,30,30S462.542,96.001,446,96.001z M446,56.001    c-5.514,0-10,4.486-10,10s4.486,10,10,10s10-4.486,10-10S451.514,56.001,446,56.001z"/><path d="M51,86.001c-13.785,0-25-11.215-25-25s11.215-25,25-25s25,11.215,25,25S64.785,86.001,51,86.001z M51,56.001    c-2.757,0-5,2.243-5,5s2.243,5,5,5s5-2.243,5-5S53.757,56.001,51,56.001z"/><path d="M246,456.001c-5.523,0-10-4.478-10-10v-120c0-5.522,4.477-10,10-10s10,4.478,10,10v120    C256,451.523,251.523,456.001,246,456.001z"/></g></g><g id="Layer_1"/></svg>