<?xml version="1.0" ?><!DOCTYPE svg  PUBLIC '-//W3C//DTD SVG 1.1//EN'  'http://www.w3.org/Graphics/SVG/1.1/DTD/svg11.dtd'><svg height="218px" style="shape-rendering:geometricPrecision; text-rendering:geometricPrecision; image-rendering:optimizeQuality; fill-rule:evenodd; clip-rule:evenodd" version="1.1" viewBox="0 0 66704 75030" width="194px" xml:space="preserve" xmlns="http://www.w3.org/2000/svg" xmlns:xlink="http://www.w3.org/1999/xlink"><defs><style type="text/css">
   <![CDATA[
    .fil3 {fill:#3DA3C3}
    .fil5 {fill:#596366}
    .fil4 {fill:#6C7678}
    .fil1 {fill:#E4E7ED}
    .fil2 {fill:#ECF0F1}
    .fil7 {fill:#FCD34E}
    .fil0 {fill:#FF7069}
    .fil6 {fill:#FFE356}
   ]]>
  </style></defs><g id="Layer_x0020_1"><g id="_529298176"><path class="fil0" d="M36655 910l26748 15444c2100,1212 3302,3294 3302,5719l0 30885c0,2425 -1202,4507 -3302,5719l-26748 15444c-2100,1213 -4504,1213 -6605,0l-26748 -15444c-2100,-1212 -3302,-3294 -3302,-5719l0 -30885c0,-2425 1202,-4507 3302,-5719l26748 -15444c2100,-1213 4504,-1213 6605,0z"/><g><polygon class="fil1" points="35446,71069 31261,71069 31261,65763 35446,65763 "/><path class="fil2" d="M52992 43881c0,-1651 -1337,-2990 -2987,-2990 -1650,0 -2987,1339 -2987,2990 0,844 353,1603 915,2145 -14,3516 -618,9553 -4194,13593 -2470,2791 -6028,4206 -10577,4206 -4626,0 -8192,-1415 -10603,-4200 -3586,-4144 -3883,-10389 -3764,-13616 551,-543 895,-1296 895,-2128 0,-1651 -1337,-2990 -2987,-2990 -1652,0 -2990,1339 -2990,2990 0,1537 1167,2789 2662,2954 -39,3750 557,9929 4369,14343 2885,3342 7062,5036 12417,5036 5264,0 9422,-1686 12366,-5012 3837,-4335 4685,-10421 4792,-14365 1500,-159 2673,-1414 2673,-2956z"/><polygon class="fil3" points="20833,37870 20833,36332 "/><polygon class="fil3" points="20833,34922 20833,33383 "/><polygon class="fil3" points="20833,31974 20833,30435 "/><path class="fil4" d="M45901 72565c0,1361 -1103,2465 -2462,2465l-20170 0c-1361,0 -2466,-1103 -2466,-2464 0,-1363 1105,-2466 2466,-2466l20170 0c1359,0 2462,1104 2462,2467z"/><polygon class="fil2" points="19205,43165 47255,43165 47255,44331 19205,44331 "/><path class="fil4" d="M29122 17078l8461 0c3559,0 6470,2911 6470,6470l0 29133c0,3559 -2911,6470 -6470,6470l-8461 0c-3559,0 -6470,-2911 -6470,-6470l0 -29133c0,-3559 2911,-6470 6470,-6470z"/><path class="fil5" d="M24777 26376c461,0 834,373 834,834 0,461 -373,834 -834,834 -461,0 -834,-373 -834,-834 0,-461 373,-834 834,-834zm3430 0c461,0 834,373 834,834 0,461 -373,834 -834,834 -461,0 -834,-373 -834,-834 0,-461 373,-834 834,-834zm3430 0c461,0 834,373 834,834 0,461 -373,834 -834,834 -461,0 -834,-373 -834,-834 0,-461 373,-834 834,-834zm3430 0c461,0 834,373 834,834 0,461 -373,834 -834,834 -460,0 -834,-373 -834,-834 0,-461 374,-834 834,-834zm3430 0c460,0 834,373 834,834 0,461 -374,834 -834,834 -461,0 -835,-373 -835,-834 0,-461 374,-834 835,-834zm3430 0c461,0 834,373 834,834 0,461 -373,834 -834,834 -461,0 -834,-373 -834,-834 0,-461 373,-834 834,-834zm-15529 -2880c461,0 834,373 834,834 0,461 -373,834 -834,834 -460,0 -834,-373 -834,-834 0,-461 374,-834 834,-834zm3430 0c460,0 834,373 834,834 0,461 -374,834 -834,834 -461,0 -834,-373 -834,-834 0,-461 373,-834 834,-834zm3430 0c461,0 834,373 834,834 0,461 -373,834 -834,834 -461,0 -834,-373 -834,-834 0,-461 373,-834 834,-834zm3430 0c461,0 834,373 834,834 0,461 -373,834 -834,834 -461,0 -834,-373 -834,-834 0,-461 373,-834 834,-834zm3430 0c461,0 834,373 834,834 0,461 -373,834 -834,834 -461,0 -834,-373 -834,-834 0,-461 373,-834 834,-834zm-15343 -3001c461,0 834,373 834,834 0,461 -373,834 -834,834 -461,0 -834,-373 -834,-834 0,-461 373,-834 834,-834zm3430 0c461,0 834,373 834,834 0,461 -373,834 -834,834 -461,0 -834,-373 -834,-834 0,-461 373,-834 834,-834zm3430 0c461,0 834,373 834,834 0,461 -373,834 -834,834 -461,0 -834,-373 -834,-834 0,-461 373,-834 834,-834zm3430 0c461,0 834,373 834,834 0,461 -373,834 -834,834 -460,0 -834,-373 -834,-834 0,-461 374,-834 834,-834zm3430 0c460,0 834,373 834,834 0,461 -374,834 -834,834 -461,0 -835,-373 -835,-834 0,-461 374,-834 835,-834zm-10561 -2752c461,0 834,373 834,834 0,461 -373,834 -834,834 -461,0 -834,-373 -834,-834 0,-461 373,-834 834,-834zm3430 0c461,0 834,373 834,834 0,461 -373,834 -834,834 -461,0 -834,-373 -834,-834 0,-461 373,-834 834,-834zm3430 0c461,0 834,373 834,834 0,461 -373,834 -834,834 -460,0 -834,-373 -834,-834 0,-461 374,-834 834,-834zm3430 0c461,0 835,373 835,834 0,461 -374,834 -835,834 -460,0 -834,-373 -834,-834 0,-461 374,-834 834,-834zm3701 2752c461,0 834,373 834,834 0,461 -373,834 -834,834 -461,0 -834,-373 -834,-834 0,-461 373,-834 834,-834z"/><path class="fil5" d="M22652 38915l2974 0c433,0 787,354 787,786l0 0c0,433 -354,786 -787,786l-2974 0 0 -1573zm0 -2819l2974 0c433,0 787,354 787,786l0 0c0,433 -354,786 -787,786l-2974 0 0 -1573zm0 -2819l2974 0c433,0 787,354 787,786l0 0c0,433 -354,786 -787,786l-2974 0 0 -1573zm0 -2819l2974 0c433,0 787,354 787,786l0 0c0,433 -354,786 -787,786l-2974 0 0 -1573z"/><path class="fil5" d="M44053 38915l-2974 0c-433,0 -786,354 -786,786l0 0c0,433 354,786 786,786l2974 0 0 -1573zm0 -2819l-2974 0c-433,0 -786,354 -786,786l0 0c0,433 354,786 786,786l2974 0 0 -1573zm0 -2819l-2974 0c-433,0 -786,354 -786,786l0 0c0,433 354,786 786,786l2974 0 0 -1573zm0 -2819l-2974 0c-433,0 -786,354 -786,786l0 0c0,433 354,786 786,786l2974 0 0 -1573z"/><rect class="fil6" height="2923" width="21401" x="22652" y="42333"/><rect class="fil5" height="574" width="21401" x="22652" y="45256"/><path class="fil5" d="M26927 58765l0 -8726c0,-432 355,-786 787,-786l0 0c432,0 786,355 786,786l0 9082c-547,-53 -1074,-174 -1573,-356zm12851 0c-500,181 -1027,303 -1573,356l0 -9082c0,-432 355,-786 787,-786l0 0c432,0 787,355 787,786l0 8726zm-2819 386l-1573 0 0 -9112c0,-432 355,-786 786,-786l0 0c432,0 787,355 787,786l0 9112zm-2819 0l-1573 0 0 -9112c0,-432 355,-786 787,-786l0 0c432,0 787,355 787,786l0 9112zm-2819 0l-1573 0 0 -9112c0,-432 355,-786 786,-786l0 0c432,0 786,355 786,786l0 9112z"/><rect class="fil7" height="2923" width="871" x="22652" y="42333"/><rect class="fil7" height="2923" width="871" x="43182" y="42333"/></g></g></g></svg>