<?xml version="1.0" encoding="utf-8"?>
<!-- Generator: Adobe Illustrator 19.0.0, SVG Export Plug-In . SVG Version: 6.00 Build 0)  -->
<svg version="1.1" id="Layer_1" xmlns="http://www.w3.org/2000/svg" xmlns:xlink="http://www.w3.org/1999/xlink" x="0px" y="0px"
	 viewBox="0 0 96 96" style="enable-background:new 0 0 96 96;" xml:space="preserve">
<style type="text/css">
	.st0{fill:#C75C5C;}
	.st1{fill:#A65050;}
	.st2{fill:#E0E0D1;}
	.st3{fill:#F5CF87;}
	.st4{fill:#4F5D73;}
	.st5{fill:#CBAC72;}
	.st6{fill:#465162;}
	.st7{fill:#FFFFFF;}
	.st8{fill:#D3D2D2;}
</style>
<g id="XMLID_1_">
	<path id="XMLID_3_" class="st0" d="M48,15.5c17.9,0,32.5,14.6,32.5,32.5S65.9,80.5,48,80.5c-17.9,0-32.5-14.6-32.5-32.5
		S30.1,15.5,48,15.5"/>
	<path id="XMLID_4_" class="st1" d="M31.7,31.8c-0.4,0-0.9,0.3-0.9,0.8c-0.2,0.5,0.2,1.1,0.7,1.2l19.2,5.1h7.8l-26.5-7
		C31.9,31.8,31.8,31.8,31.7,31.8"/>
	<path id="XMLID_5_" class="st2" d="M66.5,38.9L32,29.8c-0.5-0.1-1.1,0.2-1.2,0.7c-0.1,0.5,0.2,1.1,0.7,1.2L66,40.9
		c0.5,0.1,1.1-0.2,1.2-0.7C67.4,39.6,67.1,39,66.5,38.9"/>
	<path id="XMLID_6_" class="st1" d="M27.7,42.9L27.7,42.9v20.3c0,1.1,0.9,2,2,2h36.6c1.1,0,2-0.9,2-2v-2c0,1.1-0.9,2-2,2H29.7
		c-1.1,0-2-0.9-2-2V42.9"/>
	<path id="XMLID_7_" class="st3" d="M68.3,61.2c0,1.1-0.9,2-2,2H29.7c-1.1,0-2-0.9-2-2V40.9c0-1.1,0.9-2,2-2h36.6c1.1,0,2,0.9,2,2
		V61.2"/>
	<path id="XMLID_8_" class="st4" d="M39.9,42.9c4.5,0,8.1,3.6,8.1,8.1c0,4.5-3.6,8.1-8.1,8.1c-4.5,0-8.1-3.6-8.1-8.1
		C31.7,46.6,35.4,42.9,39.9,42.9"/>
	<path id="XMLID_9_" class="st5" d="M31.7,51c0,0.2,0,0.4,0,0.6C31.8,51.5,31.7,51.3,31.7,51"/>
	<path id="XMLID_10_" class="st6" d="M39.9,42.9L39.9,42.9c-4.5,0-8.1,3.7-8.1,8.1l0,0l0,0c0,0.2,0,0.4,0,0.6c0,0.1,0,0.3,0.1,0.4
		c0.5-4,3.9-7.1,8-7.1c4.2,0,7.5,3.1,8,7.1c0-0.3,0.1-0.7,0.1-1l0,0C48,46.6,44.3,42.9,39.9,42.9L39.9,42.9"/>
	<path id="XMLID_11_" class="st5" d="M52.6,57.1c-0.8,0-1.5,0.7-1.5,1.5c0,0.8,0.7,1.5,1.5,1.5c0.8,0,1.5-0.7,1.5-1.5
		C54.1,57.8,53.4,57.1,52.6,57.1"/>
	<path id="XMLID_12_" class="st5" d="M57.6,57.1c-0.8,0-1.5,0.7-1.5,1.5c0,0.8,0.7,1.5,1.5,1.5c0.8,0,1.5-0.7,1.5-1.5
		C59.2,57.8,58.5,57.1,57.6,57.1"/>
	<path id="XMLID_13_" class="st5" d="M62.7,57.1c-0.8,0-1.5,0.7-1.5,1.5c0,0.8,0.7,1.5,1.5,1.5c0.8,0,1.5-0.7,1.5-1.5
		C64.3,57.8,63.6,57.1,62.7,57.1"/>
	<circle id="XMLID_14_" class="st4" cx="52.6" cy="57.6" r="1.5"/>
	<circle id="XMLID_15_" class="st4" cx="57.6" cy="57.6" r="1.5"/>
	<circle id="XMLID_16_" class="st4" cx="62.7" cy="57.6" r="1.5"/>
	<path id="XMLID_17_" class="st7" d="M64.3,51c0,1.1-0.9,2-2,2h-9.1c-1.1,0-2-0.9-2-2V46c0-1.1,0.9-2,2-2h9.1c1.1,0,2,0.9,2,2V51"/>
	<path id="XMLID_18_" class="st8" d="M62.2,43.9h-9.1c-1.1,0-2,0.9-2,2v2c0-1.1,0.9-2,2-2h9.1c1.1,0,2,0.9,2,2v-2
		C64.3,44.9,63.3,43.9,62.2,43.9"/>
</g>
</svg>
