<?xml version="1.0" encoding="UTF-8" standalone="no"?>
<!-- Generator: Adobe Illustrator 19.0.0, SVG Export Plug-In . SVG Version: 6.00 Build 0)  -->

<svg
   xmlns:dc="http://purl.org/dc/elements/1.1/"
   xmlns:cc="http://creativecommons.org/ns#"
   xmlns:rdf="http://www.w3.org/1999/02/22-rdf-syntax-ns#"
   xmlns:svg="http://www.w3.org/2000/svg"
   xmlns="http://www.w3.org/2000/svg"
   xmlns:sodipodi="http://sodipodi.sourceforge.net/DTD/sodipodi-0.dtd"
   xmlns:inkscape="http://www.inkscape.org/namespaces/inkscape"
   version="1.1"
   id="Layer_1"
   x="0px"
   y="0px"
   viewBox="0 0 512 512"
   xml:space="preserve"
   sodipodi:docname="Radio-04_rescaled.svg"
   width="512"
   height="512"
   inkscape:version="0.92.3 (2405546, 2018-03-11)"><metadata
   id="metadata26"><rdf:RDF><cc:Work
       rdf:about=""><dc:format>image/svg+xml</dc:format><dc:type
         rdf:resource="http://purl.org/dc/dcmitype/StillImage" /><dc:title></dc:title></cc:Work></rdf:RDF></metadata><defs
   id="defs24" /><sodipodi:namedview
   pagecolor="#ffffff"
   bordercolor="#666666"
   borderopacity="1"
   objecttolerance="10"
   gridtolerance="10"
   guidetolerance="10"
   inkscape:pageopacity="0"
   inkscape:pageshadow="2"
   inkscape:window-width="1920"
   inkscape:window-height="1001"
   id="namedview22"
   showgrid="false"
   scale-x="1"
   inkscape:zoom="2.4583333"
   inkscape:cx="226.59222"
   inkscape:cy="277.15647"
   inkscape:window-x="-9"
   inkscape:window-y="-9"
   inkscape:window-maximized="1"
   inkscape:current-layer="Layer_1" />
<style
   type="text/css"
   id="style2">
	.st0{fill:#C75C5C;}
	.st1{fill:#A65050;}
	.st2{fill:#E0E0D1;}
	.st3{fill:#F5CF87;}
	.st4{fill:#4F5D73;}
	.st5{fill:#CBAC72;}
	.st6{fill:#465162;}
	.st7{fill:#FFFFFF;}
	.st8{fill:#D3D2D2;}
</style>
<g
   id="XMLID_1_"
   transform="matrix(7.7650587,0,0,7.7650587,-117.0618,-116.38384)">
	<path
   id="XMLID_3_"
   class="st0"
   d="M 48,15.5 C 65.9,15.5 80.5,30.1 80.5,48 80.5,65.9 65.9,80.5 48,80.5 30.1,80.5 15.5,65.9 15.5,48 15.5,30.1 30.1,15.5 48,15.5"
   inkscape:connector-curvature="0"
   style="fill:#c75c5c" />
	<path
   id="XMLID_4_"
   class="st1"
   d="m 31.7,31.8 c -0.4,0 -0.9,0.3 -0.9,0.8 -0.2,0.5 0.2,1.1 0.7,1.2 l 19.2,5.1 h 7.8 L 32,31.9 c -0.1,-0.1 -0.2,-0.1 -0.3,-0.1"
   inkscape:connector-curvature="0"
   style="fill:#a65050" />
	<path
   id="XMLID_5_"
   class="st2"
   d="M 66.5,38.9 32,29.8 c -0.5,-0.1 -1.1,0.2 -1.2,0.7 -0.1,0.5 0.2,1.1 0.7,1.2 L 66,40.9 c 0.5,0.1 1.1,-0.2 1.2,-0.7 0.2,-0.6 -0.1,-1.2 -0.7,-1.3"
   inkscape:connector-curvature="0"
   style="fill:#e0e0d1" />
	<path
   id="XMLID_6_"
   class="st1"
   d="m 27.7,42.9 v 0 20.3 c 0,1.1 0.9,2 2,2 h 36.6 c 1.1,0 2,-0.9 2,-2 v -2 c 0,1.1 -0.9,2 -2,2 H 29.7 c -1.1,0 -2,-0.9 -2,-2 V 42.9"
   inkscape:connector-curvature="0"
   style="fill:#a65050" />
	<path
   id="XMLID_7_"
   class="st3"
   d="m 68.3,61.2 c 0,1.1 -0.9,2 -2,2 H 29.7 c -1.1,0 -2,-0.9 -2,-2 V 40.9 c 0,-1.1 0.9,-2 2,-2 h 36.6 c 1.1,0 2,0.9 2,2 v 20.3"
   inkscape:connector-curvature="0"
   style="fill:#f5cf87" />
	<path
   id="XMLID_8_"
   class="st4"
   d="m 39.9,42.9 c 4.5,0 8.1,3.6 8.1,8.1 0,4.5 -3.6,8.1 -8.1,8.1 -4.5,0 -8.1,-3.6 -8.1,-8.1 -0.1,-4.4 3.6,-8.1 8.1,-8.1"
   inkscape:connector-curvature="0"
   style="fill:#4f5d73" />
	<path
   id="XMLID_9_"
   class="st5"
   d="m 31.7,51 c 0,0.2 0,0.4 0,0.6 0.1,-0.1 0,-0.3 0,-0.6"
   inkscape:connector-curvature="0"
   style="fill:#cbac72" />
	<path
   id="XMLID_10_"
   class="st6"
   d="m 39.9,42.9 v 0 c -4.5,0 -8.1,3.7 -8.1,8.1 v 0 0 c 0,0.2 0,0.4 0,0.6 0,0.1 0,0.3 0.1,0.4 0.5,-4 3.9,-7.1 8,-7.1 4.2,0 7.5,3.1 8,7.1 0,-0.3 0.1,-0.7 0.1,-1 v 0 c 0,-4.4 -3.7,-8.1 -8.1,-8.1 v 0"
   inkscape:connector-curvature="0"
   style="fill:#465162" />
	<path
   id="XMLID_11_"
   class="st5"
   d="m 52.6,57.1 c -0.8,0 -1.5,0.7 -1.5,1.5 0,0.8 0.7,1.5 1.5,1.5 0.8,0 1.5,-0.7 1.5,-1.5 0,-0.8 -0.7,-1.5 -1.5,-1.5"
   inkscape:connector-curvature="0"
   style="fill:#cbac72" />
	<path
   id="XMLID_12_"
   class="st5"
   d="m 57.6,57.1 c -0.8,0 -1.5,0.7 -1.5,1.5 0,0.8 0.7,1.5 1.5,1.5 0.8,0 1.5,-0.7 1.5,-1.5 0.1,-0.8 -0.6,-1.5 -1.5,-1.5"
   inkscape:connector-curvature="0"
   style="fill:#cbac72" />
	<path
   id="XMLID_13_"
   class="st5"
   d="m 62.7,57.1 c -0.8,0 -1.5,0.7 -1.5,1.5 0,0.8 0.7,1.5 1.5,1.5 0.8,0 1.5,-0.7 1.5,-1.5 0.1,-0.8 -0.6,-1.5 -1.5,-1.5"
   inkscape:connector-curvature="0"
   style="fill:#cbac72" />
	<circle
   id="XMLID_14_"
   class="st4"
   cx="52.599998"
   cy="57.599998"
   r="1.5"
   style="fill:#4f5d73" />
	<circle
   id="XMLID_15_"
   class="st4"
   cx="57.599998"
   cy="57.599998"
   r="1.5"
   style="fill:#4f5d73" />
	<circle
   id="XMLID_16_"
   class="st4"
   cx="62.700001"
   cy="57.599998"
   r="1.5"
   style="fill:#4f5d73" />
	<path
   id="XMLID_17_"
   class="st7"
   d="m 64.3,51 c 0,1.1 -0.9,2 -2,2 h -9.1 c -1.1,0 -2,-0.9 -2,-2 v -5 c 0,-1.1 0.9,-2 2,-2 h 9.1 c 1.1,0 2,0.9 2,2 v 5"
   inkscape:connector-curvature="0"
   style="fill:#ffffff" />
	<path
   id="XMLID_18_"
   class="st8"
   d="m 62.2,43.9 h -9.1 c -1.1,0 -2,0.9 -2,2 v 2 c 0,-1.1 0.9,-2 2,-2 h 9.1 c 1.1,0 2,0.9 2,2 v -2 c 0.1,-1 -0.9,-2 -2,-2"
   inkscape:connector-curvature="0"
   style="fill:#d3d2d2" />
</g>
</svg>