<svg id="Layer_1" height="512" viewBox="0 0 512 512" width="512" xmlns="http://www.w3.org/2000/svg" data-name="Layer 1"><path d="m139.61 469.41v.5h20v-.5l87.3-336.19h-20z" fill="#d4e1f4"/><path d="m123.464 425.373a6 6 0 0 0 7.366-4.213l29.816-109.506a6 6 0 0 0 -11.579-3.152l-29.816 109.506a6 6 0 0 0 4.213 7.365z" fill="#0635c9"/><path d="m158.507 294.362a5.991 5.991 0 0 0 7.366-4.213l10.669-39.187a6 6 0 0 0 -11.578-3.152l-10.67 39.19a6 6 0 0 0 4.213 7.362z" fill="#0635c9"/><path d="m175.058 233.575a5.991 5.991 0 0 0 7.366-4.213l1.474-5.416a6 6 0 0 0 -11.578-3.153l-1.475 5.417a6 6 0 0 0 4.213 7.365z" fill="#0635c9"/><g fill="#1ae5be"><path d="m320.91 116.653-.838-88.63a6 6 0 0 0 -6.06-5.943l-31.646.318a6 6 0 0 0 -5.94 6.057l.2 20.853a31.062 31.062 0 0 0 -20.65-7.845h-.167c-8.09.077-15.807 3.244-20.807 8.367v-21.248c0-3.313-2.95-5.582-6.263-5.582h-31.65c-3.313 0-6.089 2.269-6.089 5.582v88.634a5.9 5.9 0 0 0 6.089 5.784h31.648a6.051 6.051 0 0 0 6.263-5.784v-21.741a31.182 31.182 0 0 0 13 7.328v30.197h12v-29.434a30.9 30.9 0 0 0 17.062-7.948l.2 21.466a5.976 5.976 0 0 0 6 5.916h.06l31.646-.305a5.987 5.987 0 0 0 5.942-6.042zm-97.91-35.653h-20v-16h20zm0-46v18h-20v-18zm-20 76v-18h20v18zm66.664-24.944a19.149 19.149 0 0 1 -27.13.169 19.325 19.325 0 0 1 -5.748-13.625c-.1-10.578 8.425-18.6 19-19.6h.184a19.494 19.494 0 0 1 13.691 33.056zm19.1-21.722 19.647-.2.157 16.636-19.646.2zm19.365-30.194.17 18-19.646.2-.17-18zm-18.921 76.828-.171-18 19.647-.2.17 18z"/><path d="m342.62 108.337a6 6 0 0 0 8.485 0 50.672 50.672 0 0 0 0-71.579 6 6 0 0 0 -8.485 8.486 38.658 38.658 0 0 1 0 54.608 6 6 0 0 0 0 8.485z"/><path d="m364.652 122.085a6 6 0 1 0 8.486 8.485 82.007 82.007 0 0 0 0-115.844 6 6 0 0 0 -8.486 8.485 69.993 69.993 0 0 1 0 98.874z"/><path d="m169.38 36.958a6 6 0 0 0 -8.485 0 50.673 50.673 0 0 0 0 71.58 6 6 0 0 0 8.485-8.486 38.658 38.658 0 0 1 0-54.608 6 6 0 0 0 0-8.486z"/><path d="m147.348 23.211a6 6 0 1 0 -8.486-8.485 82.007 82.007 0 0 0 0 115.844 6 6 0 1 0 8.486-8.485 69.993 69.993 0 0 1 0-98.874z"/></g><path d="m378.435 464h-1.245l-86.29-332.355a6.14 6.14 0 0 0 -5.809-4.645h-58.182a6.113 6.113 0 0 0 -5.807 4.616l-16.04 61.884a6 6 0 0 0 5.808 7.5 6 6 0 0 0 5.808-4.5l14.872-57.5h48.9l84.342 325h-14.928l-79.4-305.644a5.878 5.878 0 0 0 -5.81-4.356h-17.308a5.879 5.879 0 0 0 -5.807 4.356l-79.403 305.644h-14.894l59.058-227.449a6.035 6.035 0 0 0 -5.812-7.551 6.039 6.039 0 0 0 -5.807 4.535l-59.838 230.465h-1.278a24.565 24.565 0 0 0 -24.565 24.785v4.247a5.718 5.718 0 0 0 5.693 5.968h282.614a5.718 5.718 0 0 0 5.693-5.968v-4.247a24.565 24.565 0 0 0 -24.565-24.785zm-59.414-71.117-55.39-70.554 27.869-35.429zm-67.034-226.883h8.026l27.7 106.489-31.707 40.216-31.7-40.241zm-3.618 156.322-55.333 70.34 27.479-105.82zm-62.856 99.356 70.487-89.621 70.566 89.918 10.9 42.025h-162.932zm-64.701 65.322a13.028 13.028 0 0 1 12.753-11h244.87a13.028 13.028 0 0 1 12.753 11z" fill="#0635c9"/></svg>