<svg id="Layer_1" enable-background="new 0 0 68 68" height="512" viewBox="0 0 68 68" width="512" xmlns="http://www.w3.org/2000/svg"><g><g><g><path d="m56.9821 9.7001h-33.4503v56.3006h33.4503c1.7528 0 3.1736-1.4209 3.1736-3.1736v-49.9534c0-1.7527-1.4208-3.1736-3.1736-3.1736z" fill="#fbc41a"/></g><g><path d="m60.3111 11.636v50.6303c0 2.0629-1.6714 3.7344-3.7449 3.7344h-29.7054c-1.1742 0-2.1158-.9521-2.1158-2.1158v-2.4861c38.9196.1799 32.2654-50.2283 32.0538-51.6987h1.4176c1.1003 0 1.9995.8569 2.0947 1.9359z" fill="#f59f02"/></g><g><path d="m51.4538 48.8403-3.3417-4.3017c-.2884-.3712-.4449-.8279-.4449-1.2979v-31.4197c0-1.1686-.9473-2.1158-2.1158-2.1158h-35.5858c-1.1685 0-2.1158.9472-2.1158 2.1158v52.0613c0 1.1685.9473 2.1158 2.1158 2.1158h39.8174c1.1685 0 2.1158-.9473 2.1158-2.1158v-13.7441c-.0001-.4701-.1567-.9267-.445-1.2979z" fill="#fbc41a"/></g><g><path d="m51.901 50.143v13.7419c0 1.1636-.9521 2.1158-2.1158 2.1158h-39.8187c-1.1742 0-2.1158-.9521-2.1158-2.1158v-2.4861c38.9195.1799 32.2654-50.2283 32.0538-51.6987h5.6491c1.1636 0 2.1158.9521 2.1158 2.1158v31.4297c0 .4655.1586.9204.4443 1.2906l3.3429 4.3056c.2857.3702.4444.8251.4444 1.3012z" fill="#f59f02"/></g><path d="m56.985 8.6996h-32.458v-5.1123c0-1.4263-1.1606-2.5869-2.5869-2.5869h-5.083c-1.4263 0-2.5869 1.1606-2.5869 2.5869v5.1223h-4.3052c-1.72 0-3.12 1.39-3.12 3.11v52.06c0 1.72 1.4 3.12 3.12 3.12h12.57 27.25 7.2c2.3 0 4.17-1.87 4.17-4.17v-49.96c0-2.3-1.87-4.17-4.17-4.17zm-38.5986 2.01h4.1406v7.2878c0 .3237-.2632.5869-.5869.5869h-2.9673c-.3232 0-.5864-.2632-.5864-.5869zm-2.1162-7.1223c0-.3237.2632-.5869.5869-.5869h5.083c.3237 0 .5869.2632.5869.5869v5.1223h-6.2568zm34.6248 60.2923c0 .62-.5 1.12-1.11 1.12h-27.25-12.57c-.61 0-1.12-.5-1.12-1.12v-52.06c0-.61.51-1.11 1.12-1.11h6.4214v7.2878c0 1.4263 1.1602 2.5869 2.5864 2.5869h2.9673c1.4263 0 2.5869-1.1606 2.5869-2.5869v-7.2878h.008 21.02c.61 0 1.11.5 1.11 1.11v31.42c0 .69.23 1.37.66 1.91l3.34 4.3c.15.2.23.44.23.69zm8.26-1.05c0 1.2-.97 2.17-2.17 2.17h-4.3c.14-.35.21-.72.21-1.12v-13.74c0-.69-.23-1.37-.65-1.91l-3.34-4.3c-.15-.2-.24-.44-.24-.69v-31.42c0-.4-.07-.77-.21-1.12h8.53c1.2 0 2.17.98 2.17 2.17z"/><g><path d="m14.2731 55.5819c-.4141 0-.75-.3359-.75-.75v-4.2314c0-.4141.3359-.75.75-.75s.75.3359.75.75v4.2314c0 .4141-.3359.75-.75.75z" fill="#fff"/></g><g><path d="m14.2731 46.5902c-.4141 0-.75-.3359-.75-.75v-3.1738c0-.4141.3359-.75.75-.75s.75.3359.75.75v3.1738c0 .4141-.3359.75-.75.75z" fill="#fff"/></g></g><g><path d="m14.432 27.454h20v2h-20z"/></g><g><path d="m14.432 33.454h20v2h-20z"/></g></g></svg>