<svg id="Layer_1" enable-background="new 0 0 512 512" height="512" viewBox="0 0 512 512" width="512" xmlns="http://www.w3.org/2000/svg"><g><path d="m225.7 459.8 35.7-35.7-158-158-66.9 66.9c-8.4 8.4-8.4 22 0 30.4l96.4 96.4c4.1 4.1 9.5 6.3 15.2 6.3h62.4c5.7 0 11.1-2.3 15.2-6.3z" fill="#56ace0"/><path d="m347.9 51.9c-8.1-8.1-22.3-8.1-30.4 0l-194.1 194.2 158 158 194.1-194.1c8.4-8.4 8.4-22 0-30.4z" fill="#fff"/><path d="m332.7 76.6-13.4 13.4 41.7 41.7c5.5 5.5 5.5 14.4 0 20-3.9 3.9-15.2 4.7-20 0l-41.6-41.7-26.8 26.8 14 14c5.5 5.5 5.5 14.4 0 20-5.1 5.1-16.1 3.8-20 0l-14-14-89.3 89.3 118.1 118.1 169.4-169.4z" fill="#ffc10d"/><path d="m495.5 159.6-127.6-127.6c-19.8-19.7-51.8-18.5-70.3 0l-281 281c-19.4 19.4-19.4 50.9 0 70.3l96.4 96.4c9.4 9.4 21.9 14.6 35.2 14.6h62.4c13.3 0 25.8-5.2 35.2-14.6l249.8-249.8c19.2-19.3 19.2-50.9-.1-70.3zm-269.8 300.2c-4 4-9.5 6.3-15.2 6.3h-62.4c-5.7 0-11.2-2.3-15.2-6.3l-96.4-96.4c-8.1-8-8.5-21.9 0-30.4l66.9-66.9 158 158zm249.8-249.8-194.1 194.1-158-158 194.1-194.1c7.6-8 21.9-8.6 30.4 0l127.6 127.6c8.4 8.3 8.4 22 0 30.4z" fill="#194f82"/></g></svg>