<svg id="_x35_0" enable-background="new 0 0 512 512" height="512" viewBox="0 0 512 512" width="512" xmlns="http://www.w3.org/2000/svg"><g><g><circle cx="256" cy="256" fill="#fb8406" r="256"/><circle cx="256" cy="256" fill="#f39e22" r="203.375"/></g><g><g><path d="m319.969 99.727c-4.938-4.937-11.635-7.711-18.617-7.711h-190.449c-11.902 0-21.537 9.635-21.537 21.528v167.024c0 11.893 9.635 21.538 21.537 21.538h241.263c11.89 0 21.528-9.639 21.528-21.528v-116.226c0-6.984-2.775-13.682-7.713-18.62z" fill="#fbcb74"/></g><g><path d="m344.439 148.666c-4.938-4.937-11.635-7.711-18.617-7.711h-190.449c-11.902 0-21.537 9.635-21.537 21.528v167.024c0 11.893 9.635 21.538 21.537 21.538h241.263c11.89 0 21.528-9.639 21.528-21.528v-116.226c0-6.984-2.775-13.682-7.713-18.62z" fill="#ffebcf"/></g><g><g><path d="m361.197 189.894h-201.355c-11.902 0-21.537 9.635-21.537 21.528v167.024c0 11.893 9.635 21.538 21.537 21.538h241.263c11.893 0 21.528-9.645 21.528-21.538v-127.123z" fill="#fff"/><path d="m361.197 189.894v39.9c0 11.893 9.635 21.528 21.528 21.528h39.909z" fill="#decee5"/></g><g fill="#dd5e26"><path d="m292.083 338.014c0 2.407-.968 4.448-2.903 6.12-1.936 1.674-4.158 2.51-6.669 2.51-1.675 0-3.243-.446-4.707-1.334-1.466-.887-2.616-2.274-3.452-4.157l-9.415-21.028h-55.235l-9.415 21.028c-.838 1.883-1.988 3.27-3.452 4.157-1.466.888-3.087 1.334-4.864 1.334-2.407 0-4.605-.836-6.591-2.51-1.988-1.672-2.981-3.712-2.981-6.12 0-1.358.313-2.719.941-4.08l43.309-93.051c.941-2.092 2.379-3.688 4.315-4.786 1.935-1.099 4.001-1.648 6.199-1.648 2.196 0 4.261.549 6.197 1.648 1.935 1.098 3.374 2.694 4.316 4.786l43.466 93.051c.628 1.362.941 2.722.941 4.08zm-75.476-33.58h41.426l-20.713-46.604z"/><path d="m362.615 275.326c5.178 5.284 7.768 13.313 7.768 24.087v38.287c0 2.823-.839 5.048-2.511 6.669-1.675 1.623-3.977 2.432-6.904 2.432-2.722 0-4.943-.836-6.669-2.511-1.726-1.673-2.59-3.869-2.59-6.59v-3.452c-1.779 4.079-4.577 7.271-8.395 9.572-3.82 2.298-8.238 3.452-13.26 3.452-5.126 0-9.783-1.047-13.965-3.139-4.185-2.092-7.48-4.968-9.885-8.63-2.409-3.66-3.609-7.741-3.609-12.239 0-5.65 1.436-10.094 4.315-13.339 2.876-3.241 7.557-5.595 14.044-7.06 6.484-1.465 15.429-2.198 26.833-2.198h3.922v-3.608c0-5.125-1.098-8.866-3.295-11.22-2.196-2.353-5.754-3.531-10.67-3.531-3.035 0-6.12.447-9.258 1.334-3.138.891-6.852 2.173-11.14 3.846-2.722 1.36-4.708 2.04-5.963 2.04-1.883 0-3.428-.679-4.629-2.04-1.204-1.358-1.805-3.139-1.805-5.335 0-1.778.445-3.321 1.334-4.63.888-1.306 2.379-2.534 4.473-3.687 3.66-1.986 8.027-3.556 13.103-4.707 5.073-1.15 10.066-1.727 14.985-1.727 10.669-.001 18.593 2.642 23.771 7.924zm-15.848 52.567c3.295-3.503 4.943-8.027 4.943-13.573v-3.297h-2.824c-7.01 0-12.451.315-16.32.943-3.871.627-6.644 1.725-8.316 3.294-1.675 1.569-2.511 3.714-2.511 6.434 0 3.349 1.176 6.095 3.53 8.238 2.354 2.145 5.257 3.217 8.709 3.217 5.23.001 9.494-1.75 12.789-5.256z"/></g></g></g></g></svg>