<svg id="Capa_1" enable-background="new 0 0 501 501" height="512" viewBox="0 0 501 501" width="512" xmlns="http://www.w3.org/2000/svg"><path d="m426.923 418.767c1.986 2.102 1.906 5.409-.167 7.425-44.126 42.893-104.356 69.308-170.756 69.308-135.309 0-245-109.69-245-244.999 0-135.063 110.154-245.118 245.217-245.001 66.298.057 126.433 26.449 170.508 69.278 2.092 2.033 2.165 5.373.162 7.493-41.465 43.886-66.887 103.088-66.887 168.229 0 65.16 25.437 124.378 66.923 168.267z" fill="#e659a9"/><path d="m190 406.5h-122c-11.046 0-20-8.954-20-20v-272c0-11.046 8.954-20 20-20h122c11.046 0 20 8.954 20 20v272c0 11.046-8.954 20-20 20z" fill="#00429a"/><path d="m88 104.5h353.595c7.151 0 13.868 3.524 17.858 9.458 26.237 39.016 41.547 85.991 41.547 136.542 0 48.781-14.257 94.232-38.83 132.414-4.642 7.212-12.618 11.586-21.194 11.586h-352.976z" fill="#0055c7"/><path d="m320 174.5v20c0 5.523-4.477 10-10 10-5.523 0-10-4.477-10-10v-20c0-5.523 4.477-10 10-10 5.523 0 10 4.477 10 10zm-50-40c-5.523 0-10 4.477-10 10v30c0 5.523 4.477 10 10 10 5.523 0 10-4.477 10-10v-30c0-5.523-4.477-10-10-10zm-40 20c-5.523 0-10 4.477-10 10v20c0 5.523 4.477 10 10 10 5.523 0 10-4.477 10-10v-20c0-5.523-4.477-10-10-10zm-40-20c-5.523 0-10 4.477-10 10v10c0 5.523 4.477 10 10 10 5.523 0 10-4.477 10-10v-10c0-5.523-4.477-10-10-10zm-40 40c-5.523 0-10 4.477-10 10v20c0 5.523 4.477 10 10 10 5.523 0 10-4.477 10-10v-20c0-5.523-4.477-10-10-10zm280 30c-5.523 0-10 4.477-10 10v60c0 5.523 4.477 10 10 10 5.523 0 10-4.477 10-10v-60c0-5.523-4.477-10-10-10zm-40-70c-5.523 0-10 4.477-10 10v10c0 5.523 4.477 10 10 10 5.523 0 10-4.477 10-10v-10c0-5.523-4.477-10-10-10zm0 210c-5.523 0-10 4.477-10 10 0 5.523 4.477 10 10 10 5.523 0 10-4.477 10-10 0-5.523-4.477-10-10-10zm-80-100c-5.523 0-10 4.477-10 10v40c0 5.523 4.477 10 10 10 5.523 0 10-4.477 10-10v-40c0-5.523-4.477-10-10-10zm-80-30c-5.523 0-10 4.477-10 10v20c0 5.523 4.477 10 10 10 5.523 0 10-4.477 10-10v-20c0-5.523-4.477-10-10-10zm-40-30c-5.523 0-10 4.477-10 10v80c0 5.523 4.477 10 10 10 5.523 0 10-4.477 10-10v-80c0-5.523-4.477-10-10-10zm200 0c-5.523 0-10 4.477-10 10v40c0 5.523 4.477 10 10 10 5.523 0 10-4.477 10-10v-40c0-5.523-4.477-10-10-10zm-80 140c-5.523 0-10 4.477-10 10v20c0 5.523 4.477 10 10 10 5.523 0 10-4.477 10-10v-20c0-5.523-4.477-10-10-10zm-40-10c-5.523 0-10 4.477-10 10v10c0 5.523 4.477 10 10 10 5.523 0 10-4.477 10-10v-10c0-5.523-4.477-10-10-10zm-80-10c-5.523 0-10 4.477-10 10v30c0 5.523 4.477 10 10 10 5.523 0 10-4.477 10-10v-30c0-5.523-4.477-10-10-10zm-40 10c-5.523 0-10 4.477-10 10v30c0 5.523 4.477 10 10 10 5.523 0 10-4.477 10-10v-30c0-5.523-4.477-10-10-10zm280-160c-5.523 0-10 4.477-10 10v10c0 5.523 4.477 10 10 10 5.523 0 10-4.477 10-10v-10c0-5.523-4.477-10-10-10zm-80 130c-5.523 0-10 4.477-10 10v40c0 5.523 4.477 10 10 10 5.523 0 10-4.477 10-10v-40c0-5.523-4.477-10-10-10z" fill="#003278"/><path d="m280 214.5v60c0 5.523-4.477 10-10 10-5.523 0-10-4.477-10-10v-60c0-5.523 4.477-10 10-10 5.523 0 10 4.477 10 10zm-50 60c-5.523 0-10 4.477-10 10v70c0 5.523 4.477 10 10 10 5.523 0 10-4.477 10-10v-70c0-5.523-4.477-10-10-10zm200 40c-5.523 0-10 4.477-10 10v30c0 5.523 4.477 10 10 10 5.523 0 10-4.477 10-10v-30c0-5.523-4.477-10-10-10zm-80-170c-5.523 0-10 4.477-10 10v100c0 5.523 4.477 10 10 10 5.523 0 10-4.477 10-10v-100c0-5.523-4.477-10-10-10z" fill="#00f1a5"/><path d="m160 244.5v40c0 5.523-4.477 10-10 10-5.523 0-10-4.477-10-10v-40c0-5.523 4.477-10 10-10 5.523 0 10 4.477 10 10zm230 20c-5.523 0-10 4.477-10 10v40c0 5.523 4.477 10 10 10 5.523 0 10-4.477 10-10v-40c0-5.523-4.477-10-10-10z" fill="#fff5f5"/><path d="m260 426.5h-240c-11.046 0-20-8.954-20-20v-14c0-5.523 4.477-10 10-10h270v24c0 11.046-8.954 20-20 20zm0-352h-192c-11.046 0-20 8.954-20 20v20h212z" fill="#69c3da"/><path d="m462.436 382.5c-10.278 16.041-22.375 30.804-35.998 44h-366.438c-11.046 0-20-8.954-20-20v-14c0-5.523 4.477-10 10-10zm-35.998-308h-318.438c-11.046 0-20 8.954-20 20v20h371.817c-9.694-14.5-20.896-27.908-33.379-40z" fill="#98e5fb"/><path d="m340 382.5c0 11.046-8.954 20-20 20h-60c-11.046 0-20-8.954-20-20zm-50-278c5.523 0 10-4.477 10-10s-4.477-10-10-10-10 4.477-10 10 4.477 10 10 10z" fill="#69c3da"/></svg>