<svg id="Capa_1" enable-background="new 0 0 512 512" height="512" viewBox="0 0 512 512" width="512" xmlns="http://www.w3.org/2000/svg"><g><g><circle cx="320.927" cy="320.927" fill="#fcbe00" r="191.073"/><path d="m320.927 129.854v382.146c105.527 0 191.073-85.546 191.073-191.073s-85.546-191.073-191.073-191.073z" fill="#ff9000"/></g><ellipse cx="320.927" cy="320.927" fill="#f5f1f0" rx="131.073" ry="131.072" transform="matrix(.707 -.707 .707 .707 -132.932 320.927)"/><path d="m320.927 189.854v262.146c72.274 0 131.073-58.799 131.073-131.073s-58.799-131.073-131.073-131.073z" fill="#eae1de"/><g><g><circle cx="191.073" cy="191.073" fill="#ffd92e" r="191.073"/><path d="m191.073 0v382.146c105.527 0 191.073-85.546 191.073-191.073s-85.546-191.073-191.073-191.073z" fill="#fcbe00"/></g><g><g><path d="m327.667 182.421-16.113 6.556c-3.425 1.393-7.087 2.11-10.785 2.11-6.06 0-11.964-1.924-16.861-5.494l-25.478-18.577c-8.581-6.257-18.928-9.629-29.548-9.629-10.949 0-21.598 3.583-30.319 10.203l-7.49 5.685-7.49-5.685c-8.722-6.619-19.37-10.203-30.319-10.203-10.62 0-20.967 3.372-29.548 9.629l-25.478 18.577c-4.897 3.571-10.801 5.494-16.861 5.494-3.698 0-7.36-.717-10.785-2.11l-16.113-6.556-4.91 2.467c12.847 35.232 46.348 58.676 83.85 58.676h1.072c20.271 0 39.939-6.901 55.766-19.567l.816-.653.816.653c15.827 12.666 35.495 19.567 55.766 19.567h1.072c37.501 0 71.003-23.443 83.85-58.676z" fill="#913f02"/></g><g><path d="m327.667 182.421-16.113 6.556c-3.425 1.393-7.087 2.11-10.785 2.11-6.06 0-11.964-1.924-16.861-5.494l-25.478-18.577c-8.581-6.257-18.928-9.629-29.548-9.629-10.949 0-21.598 3.583-30.319 10.203l-7.49 5.685v50.069l.816.653c15.827 12.666 35.495 19.567 55.766 19.567h1.072c37.501 0 71.003-23.443 83.85-58.676z" fill="#6f2e01"/></g></g></g></g></svg>