<?xml version="1.0" encoding="iso-8859-1"?>
<!-- Generator: Adobe Illustrator 19.0.0, SVG Export Plug-In . SVG Version: 6.00 Build 0)  -->
<svg version="1.1" id="Capa_1" xmlns="http://www.w3.org/2000/svg" xmlns:xlink="http://www.w3.org/1999/xlink" x="0px" y="0px"
	 viewBox="0 0 496 496" style="enable-background:new 0 0 496 496;" xml:space="preserve">
<g>
	<rect x="72" y="136" style="fill:#FFA64D;" width="352" height="80"/>
	<path style="fill:#FFA64D;" d="M352,304c-17.648,0-32-14.352-32-32s14.352-32,32-32s32,14.352,32,32S369.648,304,352,304z"/>
	<path style="fill:#FFA64D;" d="M432,304c-17.648,0-32-14.352-32-32s14.352-32,32-32s32,14.352,32,32S449.648,304,432,304z"/>
</g>
<g>
	<path style="fill:#333333;" d="M472,96h-24V40c0-22.056-17.944-40-40-40H88C65.944,0,48,17.944,48,40v56H24
		c-13.232,0-24,10.768-24,24v32v48v240c0,10.416,6.712,19.216,16,22.528V496h64v-32h336v32h64v-33.472
		c9.288-3.312,16-12.112,16-22.528V200v-48v-32C496,106.768,485.232,96,472,96z M432,40v56h-32V48h-64V16h72
		C421.232,16,432,26.768,432,40z M304,48V16h16v32H304z M288,48h-16V16h16V48z M256,48h-16V16h16V48z M224,48h-16V16h16V48z M192,48
		h-16V16h16V48z M384,64v32H112V64H384z M64,40c0-13.232,10.768-24,24-24h72v32H96v48H64V40z M64,184H16v-16h48V184z M64,480H32v-16
		h32V480z M464,480h-32v-16h32V480z M480,440c0,4.416-3.584,8-8,8h-56H80H24c-4.416,0-8-3.584-8-8V200h48v24h368v-24h16v-16h-16v-16
		h48v16h-16v16h16V440z M416,144v64h-48v-64H416z M352,208h-80v-64h80V208z M256,208h-80v-64h80V208z M160,208H80v-64h80V208z
		 M432,152v-24H64v24H16v-32c0-4.408,3.584-8,8-8h24h64h272h64h24c4.416,0,8,3.592,8,8v32H432z"/>
	<rect x="96" y="160" style="fill:#333333;" width="16" height="32"/>
	<rect x="128" y="160" style="fill:#333333;" width="16" height="32"/>
	<rect x="192" y="160" style="fill:#333333;" width="16" height="32"/>
	<rect x="224" y="160" style="fill:#333333;" width="16" height="32"/>
	<rect x="288" y="160" style="fill:#333333;" width="16" height="32"/>
	<rect x="320" y="160" style="fill:#333333;" width="16" height="32"/>
	<rect x="384" y="160" style="fill:#333333;" width="16" height="32"/>
	<path style="fill:#333333;" d="M320,416h144v-80H320V416z M384,400h-16v-48h16V400z M400,352h16v48h-16V352z M448,400h-16v-48h16
		V400z M336,352h16v48h-16V352z"/>
	<path style="fill:#333333;" d="M152,240c-57.344,0-104,43.064-104,96s46.656,96,104,96s104-43.064,104-96S209.344,240,152,240z
		 M240,336c0,2.808-0.168,5.584-0.48,8.32l-8.328-8.32l8.328-8.328C239.832,330.408,240,333.184,240,336z M219.88,324.688
		l-22.624-22.624l19.768-19.768c7.856,7.848,14,17.096,17.944,27.304L219.88,324.688z M129.376,369.936L152,347.312l22.624,22.624
		L152,392.568L129.376,369.936z M140.688,403.88l-9.712,9.712c-11.624-2.608-22.32-7.296-31.616-13.64l18.704-18.704L140.688,403.88
		z M124.712,284.096l-6.656,6.656l-18.704-18.704c9.296-6.344,19.992-11.032,31.616-13.64l9.712,9.712l-6.224,6.224l11.312,11.312
		l6.232-6.224l22.632,22.632L152,324.688l-22.632-22.632l6.656-6.656L124.712,284.096z M163.312,268.12l9.712-9.712
		c11.624,2.608,22.32,7.296,31.616,13.64l-18.704,18.704L163.312,268.12z M140.688,336l-22.624,22.624L95.432,336l22.624-22.624
		L140.688,336z M163.312,336l22.624-22.624L208.568,336l-22.624,22.632L163.312,336z M152.768,256.032L152,256.808l-0.768-0.768
		c0.256-0.008,0.504-0.04,0.768-0.04C152.256,256,152.512,256.032,152.768,256.032z M86.976,282.288l19.768,19.768l-22.632,22.632
		L69.024,309.6C72.976,299.384,79.12,290.136,86.976,282.288z M64,336c0-2.808,0.168-5.584,0.48-8.32L72.8,336l-8.32,8.32
		C64.168,341.584,64,338.808,64,336z M69.024,362.4l15.088-15.088l22.632,22.624l-19.776,19.776
		C79.12,381.864,72.976,372.616,69.024,362.4z M151.232,415.968l0.768-0.776l0.776,0.776c-0.264,0-0.512,0.032-0.776,0.032
		C151.744,416,151.488,415.968,151.232,415.968z M217.024,389.712l-3.168-3.168l-11.312,11.312l2.096,2.096
		c-9.296,6.344-19.992,11.032-31.608,13.64l-9.72-9.712l22.624-22.624l7.96,7.96l11.312-11.312l-7.96-7.96l22.624-22.632
		l15.096,15.088C231.024,372.616,224.88,381.864,217.024,389.712z"/>
</g>
<g>
</g>
<g>
</g>
<g>
</g>
<g>
</g>
<g>
</g>
<g>
</g>
<g>
</g>
<g>
</g>
<g>
</g>
<g>
</g>
<g>
</g>
<g>
</g>
<g>
</g>
<g>
</g>
<g>
</g>
</svg>
