<?xml version="1.0" encoding="iso-8859-1"?>
<!-- Generator: Adobe Illustrator 19.0.0, SVG Export Plug-In . SVG Version: 6.00 Build 0)  -->
<svg version="1.1" id="Capa_1" xmlns="http://www.w3.org/2000/svg" xmlns:xlink="http://www.w3.org/1999/xlink" x="0px" y="0px"
	 viewBox="0 0 496 496" style="enable-background:new 0 0 496 496;" xml:space="preserve">
<g>
	<rect x="56" y="56" style="fill:#FFA64D;" width="384" height="160"/>
	<path style="fill:#FFA64D;" d="M376,344c-22.056,0-40-17.944-40-40s17.944-40,40-40s40,17.944,40,40S398.056,344,376,344z"/>
	<path style="fill:#FFA64D;" d="M120,344c-22.056,0-40-17.944-40-40s17.944-40,40-40s40,17.944,40,40S142.056,344,120,344z"/>
</g>
<g>
	<path style="fill:#333333;" d="M456,0H40C17.944,0,0,17.944,0,40v368c0,22.056,17.944,40,40,40v24c0,13.232,10.768,24,24,24h64
		c13.232,0,24-10.768,24-24v-24h192v24c0,13.232,10.768,24,24,24h64c13.232,0,24-10.768,24-24v-24c22.056,0,40-17.944,40-40V40
		C496,17.944,478.056,0,456,0z M136,472c0,4.416-3.592,8-8,8H64c-4.408,0-8-3.584-8-8v-24h80V472z M440,472c0,4.416-3.592,8-8,8h-64
		c-4.408,0-8-3.584-8-8v-24h80V472z M480,408c0,13.232-10.768,24-24,24H344H152H40c-13.232,0-24-10.768-24-24V40
		c0-13.232,10.768-24,24-24h416c13.232,0,24,10.768,24,24V408z"/>
	<rect x="320" y="240" style="fill:#333333;" width="16" height="16"/>
	<rect x="192" y="240" style="fill:#333333;" width="112" height="16"/>
	<rect x="160" y="240" style="fill:#333333;" width="16" height="16"/>
	<path style="fill:#333333;" d="M368,48h-48h-16h-48h-16h-48h-16h-48h-16H48v176v176h120h160h120V224V48h-64H368z M368,64v16h-32v16
		h32v48h-32v16h32v48h-48v-16h32v-16h-32v-48h32v-16h-32V64H368z M304,64v16h-32v16h32v48h-32v16h32v48h-48v-16h32v-16h-32v-48h32
		v-16h-32V64H304z M240,64v16h-32v16h32v48h-32v16h32v48h-48v-16h32v-16h-32v-48h32v-16h-32V64H240z M176,64v16h-32v16h32v48h-32v16
		h32v48h-48v-16h32v-16h-32v-48h32v-16h-32V64H176z M112,64v16H80v16h32v48H80v16h32v48H64v-16h32v-16H64v-48h32v-16H64V64H112z
		 M264,352v32h-32v-32H264z M216,384h-32v-32h32V384z M280,384v-32h32v32H280z M328,384v-48H168v48H64V224h48h16h48h16h48h16h48h16
		h48h16h48v160H328z M432,64v16h-32v16h32v48h-32v16h32v48h-48v-16h32v-16h-32v-48h32v-16h-32V64H432z"/>
</g>
<g>
</g>
<g>
</g>
<g>
</g>
<g>
</g>
<g>
</g>
<g>
</g>
<g>
</g>
<g>
</g>
<g>
</g>
<g>
</g>
<g>
</g>
<g>
</g>
<g>
</g>
<g>
</g>
<g>
</g>
</svg>
