<svg id="Capa_1" enable-background="new 0 0 512 512" height="512" viewBox="0 0 512 512" width="512" xmlns="http://www.w3.org/2000/svg"><g><path d="m398.55 467.86-16-64c-1.67-6.68-7.67-11.36-14.55-11.36h-224c-6.88 0-12.88 4.68-14.55 11.36l-16 64c-2.372 9.489 4.827 18.64 14.55 18.64h256c9.745 0 16.917-9.169 14.55-18.64z" fill="#4a5959"/><path d="m398.55 467.86c2.372 9.489-4.827 18.64-14.55 18.64h-128v-94h112c6.88 0 12.88 4.68 14.55 11.36z" fill="#403b40"/><path d="m431 471.5c0 8.28-6.72 15-15 15h-320c-8.28 0-15-6.72-15-15s6.72-15 15-15h320c8.28 0 15 6.72 15 15z" fill="#696e73"/><path d="m431 471.5c0 8.28-6.72 15-15 15h-160v-30h160c8.28 0 15 6.72 15 15z" fill="#4a5959"/><path d="m497 70.5v307c0 16.57-13.43 30-30 30h-422c-16.57 0-30-13.43-30-30v-307c0-16.57 13.43-30 30-30h422c16.57 0 30 13.43 30 30z" fill="#f4f4f6"/><path d="m497 70.5v307c0 16.57-13.43 30-30 30h-211v-367h211c16.57 0 30 13.43 30 30z" fill="#e2dff4"/><path d="m497 167.5c0 8.28-6.72 15-15 15h-66c-8.28 0-15-6.72-15-15v-49h-34v49c0 8.28-6.72 15-15 15h-64c-8.28 0-15-6.72-15-15v-49h-34v49c0 8.28-6.72 15-15 15h-64c-8.28 0-15-6.72-15-15v-49h-34v49c0 8.28-6.72 15-15 15h-66c-8.28 0-15-6.72-15-15s6.72-15 15-15h51v-49c0-8.28 6.72-15 15-15h64c8.28 0 15 6.72 15 15v49h34v-49c0-8.28 6.72-15 15-15h64c8.28 0 15 6.72 15 15v49h34v-49c0-8.28 6.72-15 15-15h64c8.28 0 15 6.72 15 15v49h51c8.28 0 15 6.72 15 15z" fill="#ff8659"/><path d="m497 279.5c0 8.28-6.72 15-15 15h-34c-25.92 0-47-21.08-47-47 0-9.37-7.63-17-17-17s-17 7.63-17 17c0 25.92-21.08 47-47 47s-47-21.08-47-47c0-9.37-7.63-17-17-17s-17 7.63-17 17c0 25.92-21.08 47-47 47s-47-21.08-47-47c0-9.37-7.63-17-17-17s-17 7.63-17 17c0 25.92-21.08 47-47 47h-34c-8.28 0-15-6.72-15-15s6.72-15 15-15h34c9.37 0 17-7.63 17-17 0-25.92 21.08-47 47-47s47 21.08 47 47c0 9.37 7.63 17 17 17s17-7.63 17-17c0-25.92 21.08-47 47-47s47 21.08 47 47c0 9.37 7.63 17 17 17s17-7.63 17-17c0-25.92 21.08-47 47-47s47 21.08 47 47c0 9.37 7.63 17 17 17h34c8.28 0 15 6.72 15 15z" fill="#ace233"/><path d="m497 279.5c0 8.28-6.72 15-15 15h-34c-25.92 0-47-21.08-47-47 0-9.37-7.63-17-17-17s-17 7.63-17 17c0 25.92-21.08 47-47 47s-47-21.08-47-47c0-9.37-7.63-17-17-17v-30c25.92 0 47 21.08 47 47 0 9.37 7.63 17 17 17s17-7.63 17-17c0-25.92 21.08-47 47-47s47 21.08 47 47c0 9.37 7.63 17 17 17h34c8.28 0 15 6.72 15 15z" fill="#00cb75"/><path d="m273 118.5h-17v-30h32c8.28 0 15 6.72 15 15v49h34v-49c0-8.28 6.72-15 15-15h64c8.28 0 15 6.72 15 15v49h51c8.28 0 15 6.72 15 15s-6.72 15-15 15h-66c-8.28 0-15-6.72-15-15v-49h-34v49c0 8.28-6.72 15-15 15h-64c-8.28 0-15-6.72-15-15z" fill="#ff5c5c"/><path d="m467 25.5h-422c-24.81 0-45 20.19-45 45v307c0 24.81 20.19 45 45 45h422c24.81 0 45-20.19 45-45v-307c0-24.81-20.19-45-45-45zm15 303h-452v-258c0-8.27 6.73-15 15-15h422c8.27 0 15 6.73 15 15z" fill="#696e73"/><path d="m512 70.5v307c0 24.81-20.19 45-45 45h-211v-94h226v-258c0-8.27-6.73-15-15-15h-211v-30h211c24.81 0 45 20.19 45 45z" fill="#4a5959"/></g></svg>