<svg height="511pt" viewBox="0 -3 511.99859 511" width="511pt" xmlns="http://www.w3.org/2000/svg"><path d="m93.089844 503.988281 21.75-37.675781c-13.601563-8.957031-26.453125-19.273438-38.398438-30.820312-83.105468-81.566407-100.425781-208.917969-42.21875-309.769532 37.371094-64.714844 100.738282-109.601562 173.863282-123.15625l11.179687-2.066406 42.585937 86.417969-21.703124 2.023437c-53.398438 4.953125-101.230469 35.535156-127.949219 81.800782-35.039063 60.683593-27.988281 136.875 17.542969 189.570312 8.851562 10.566406 18.960937 19.871094 30.230468 27.832031l21.175782-36.695312 70.375 142.308593zm0 0" fill="#25d9f8"/><path d="m292.660156 506.082031-42.613281-86.476562 21.746094-1.992188c53.328125-4.863281 101.160156-35.449219 127.917969-81.800781 42.96875-74.445312 21.175781-168.808594-47.757813-217.402344l-21.191406 36.695313-70.339844-142.269531 69.34375-4.613282.277344.144532 88.808593-5.847657-21.761718 37.707031c52.34375 34.363282 89.773437 86.066407 106.113281 147.015626 17.628906 65.796874 8.574219 134.558593-25.515625 193.585937-37.207031 64.4375-100.558594 109.324219-173.816406 123.144531zm0 0" fill="#00c0f1"/><path d="m361 253.277344c0-2.703125 0-5.703125-.300781-8.40625l34.816406-20.105469-45.019531-78.035156-35.113282 20.410156c-4.800781-3.300781-9.304687-6.003906-14.40625-8.40625v-40.515625h-90.039062v40.515625c-5.101562 2.402344-9.601562 5.101563-14.402344 8.40625l-35.117187-20.410156-45.019531 78.035156 34.816406 20.105469c-.300782 2.703125-.300782 5.703125-.300782 8.40625 0 2.699218 0 5.699218.300782 8.402344l-34.816406 20.109374 45.019531 78.03125 35.117187-20.410156c4.800782 3.300782 9.300782 6.003906 14.402344 8.402344v40.519531h90.039062v-40.519531c5.101563-2.398438 9.605469-5.101562 14.40625-8.402344l35.113282 20.410156 45.019531-78.03125-34.816406-20.109374c.300781-2.703126.300781-5.703126.300781-8.402344zm-105.042969 45.019531c-24.910156 0-45.019531-20.113281-45.019531-45.019531 0-24.914063 20.109375-45.019532 45.019531-45.019532 24.910157 0 45.019531 20.105469 45.019531 45.019532 0 24.90625-20.109374 45.019531-45.019531 45.019531zm0 0" fill="#1c78bf"/><path d="m360.699219 261.679688 34.816406 20.109374-45.019531 78.03125-35.113282-20.410156c-4.800781 3.300782-9.304687 6.003906-14.40625 8.402344v40.519531h-45.019531v-90.039062c24.910157 0 45.019531-20.109375 45.019531-45.019531 0-24.910157-20.105468-45.015626-45.019531-45.015626v-90.039062h45.019531v40.515625c5.101563 2.402344 9.605469 5.101563 14.40625 8.402344l35.113282-20.40625 45.019531 78.03125-34.816406 20.109375c.300781 2.699218.300781 5.699218.300781 8.402344 0 2.703124 0 5.703124-.300781 8.40625zm0 0" fill="#145383"/></svg>