<svg id="Capa_1" enable-background="new 0 0 496.983 496.983" height="512" viewBox="0 0 496.983 496.983" width="512" xmlns="http://www.w3.org/2000/svg"><g><path d="m173.492 249.483v247.5h30c16.568 0 30-13.431 30-30v-187.5z" fill="#71758e"/><path d="m68.491 249.483v247.5h-30c-16.568 0-30-13.431-30-30v-187.5z" fill="#9b9ea7"/><path d="m84.359 14.975c-.487-8.407-7.446-14.975-15.867-14.975s-15.38 6.568-15.867 14.975l-6.633 114.508 22.5 30 22.5-30z" fill="#9b9ea7"/><path d="m173.491 95.423-30 64.06h60v-56.56c0-4.142-3.358-7.5-7.5-7.5z" fill="#71758e"/><path d="m143.491 102.923v56.56h30v-64.06h-22.5c-4.142 0-7.5 3.358-7.5 7.5z" fill="#9b9ea7"/><path d="m203.491 129.483h-30l30 192.812c0-17.045 9.63-32.626 24.875-40.249l5.124-2.562v-120c.001-16.57-13.43-30.001-29.999-30.001z" fill="#2e3261"/><path d="m173.491 204.483 30-45c0-16.569-13.432-30-30-30h-135c-16.569 0-30 13.431-30 30v120l5.124 2.562c15.245 7.623 24.875 23.205 24.875 40.249v144.688c0 16.568 13.431 30 30 30h105c16.568 0 30-13.431 30-30v-217.5z" fill="#474c75"/><path d="m203.491 159.483h-30l-65.5 45 65.5 45h30z" fill="#ffcd5e"/><path d="m38.491 159.483h135v90h-135z" fill="#ffe669"/><g fill="#2e3261"><path d="m173.491 329.794h-105c-4.142 0-7.5-3.357-7.5-7.5s3.358-7.5 7.5-7.5h105c4.142 0 7.5 3.357 7.5 7.5s-3.357 7.5-7.5 7.5z"/><path d="m173.491 359.794h-105c-4.142 0-7.5-3.357-7.5-7.5s3.358-7.5 7.5-7.5h105c4.142 0 7.5 3.357 7.5 7.5s-3.357 7.5-7.5 7.5z"/><path d="m173.491 389.794h-105c-4.142 0-7.5-3.357-7.5-7.5s3.358-7.5 7.5-7.5h105c4.142 0 7.5 3.357 7.5 7.5s-3.357 7.5-7.5 7.5z"/></g><path d="m428.491 249.483v247.5h30c16.568 0 30-13.431 30-30v-187.5z" fill="#71758e"/><path d="m323.491 249.483v247.5h-30c-16.568 0-30-13.431-30-30v-187.5z" fill="#9b9ea7"/><path d="m339.359 14.975c-.487-8.407-7.447-14.975-15.868-14.975s-15.38 6.568-15.867 14.975l-6.633 114.508 22.5 30 22.5-30z" fill="#9b9ea7"/><path d="m428.491 95.423-30 64.06h60v-56.56c0-4.142-3.358-7.5-7.5-7.5z" fill="#71758e"/><path d="m398.491 102.923v56.56h30v-64.06h-22.5c-4.142 0-7.5 3.358-7.5 7.5z" fill="#9b9ea7"/><path d="m458.491 129.483h-30l30 192.812c0-17.045 9.63-32.626 24.875-40.249l5.124-2.562v-120c.001-16.57-13.43-30.001-29.999-30.001z" fill="#2e3261"/><path d="m428.491 204.483 30-45c0-16.569-13.432-30-30-30h-135c-16.569 0-30 13.431-30 30v120l5.124 2.562c15.245 7.623 24.875 23.205 24.875 40.249v144.688c0 16.568 13.431 30 30 30h105c16.568 0 30-13.431 30-30v-217.5z" fill="#474c75"/><path d="m458.491 159.483h-30l-65.5 45 65.5 45h30z" fill="#ffcd5e"/><path d="m293.491 159.483h135v90h-135z" fill="#ffe669"/><path d="m428.491 329.794h-105c-4.143 0-7.5-3.357-7.5-7.5s3.357-7.5 7.5-7.5h105c4.143 0 7.5 3.357 7.5 7.5s-3.357 7.5-7.5 7.5z" fill="#2e3261"/><path d="m428.491 359.794h-105c-4.143 0-7.5-3.357-7.5-7.5s3.357-7.5 7.5-7.5h105c4.143 0 7.5 3.357 7.5 7.5s-3.357 7.5-7.5 7.5z" fill="#2e3261"/><path d="m428.491 389.794h-105c-4.143 0-7.5-3.357-7.5-7.5s3.357-7.5 7.5-7.5h105c4.143 0 7.5 3.357 7.5 7.5s-3.357 7.5-7.5 7.5z" fill="#2e3261"/></g></svg>