<svg id="Capa_1" enable-background="new 0 0 511.982 511.982" height="512" viewBox="0 0 511.982 511.982" width="512" xmlns="http://www.w3.org/2000/svg"><g><path d="m180.991 256.983v247.5h30c16.568 0 30-13.431 30-30v-187.5z" fill="#71758e"/><path d="m75.991 256.983v247.5h-30c-16.568 0-30-13.431-30-30v-187.5z" fill="#9b9ea7"/><path d="m91.859 22.475c-.487-8.407-7.447-14.975-15.868-14.975s-15.38 6.568-15.867 14.975l-6.633 114.508 22.5 30 22.5-30z" fill="#9b9ea7"/><path d="m180.991 102.923-30 64.06h60v-64.06z" fill="#71758e"/><path d="m150.991 102.923h30v64.06h-30z" fill="#9b9ea7"/><path d="m210.991 136.983h-30l30 192.812c0-17.045 9.63-32.626 24.875-40.249l5.124-2.562v-120c.001-16.57-13.43-30.001-29.999-30.001z" fill="#2e3261"/><path d="m180.991 211.983 30-45c0-16.569-13.432-30-30-30h-135c-16.569 0-30 13.431-30 30v120l5.124 2.562c15.245 7.623 24.875 23.205 24.875 40.249v144.688c0 16.568 13.431 30 30 30h105c16.568 0 30-13.431 30-30v-217.5z" fill="#474c75"/><path d="m210.991 166.983h-30l-65.5 45 65.5 45h30z" fill="#ffcd5e"/><path d="m45.991 166.983h135v90h-135z" fill="#ffe669"/><path d="m435.991 256.983v247.5h30c16.568 0 30-13.431 30-30v-187.5z" fill="#71758e"/><path d="m330.991 256.983v247.5h-30c-16.568 0-30-13.431-30-30v-187.5z" fill="#9b9ea7"/><path d="m346.858 22.475c-.486-8.407-7.446-14.975-15.867-14.975s-15.38 6.568-15.867 14.975l-6.633 114.508 22.5 30 22.5-30z" fill="#9b9ea7"/><path d="m435.991 102.923-30 64.06h60v-64.06z" fill="#71758e"/><path d="m405.991 102.923h30v64.06h-30z" fill="#9b9ea7"/><path d="m465.991 136.983h-30l30 192.812c0-17.045 9.63-32.626 24.875-40.249l5.124-2.562v-120c.001-16.57-13.43-30.001-29.999-30.001z" fill="#2e3261"/><path d="m435.991 211.983 30-45c0-16.569-13.432-30-30-30h-135c-16.569 0-30 13.431-30 30v120l5.124 2.562c15.245 7.623 24.875 23.205 24.875 40.249v144.688c0 16.568 13.431 30 30 30h105c16.568 0 30-13.431 30-30v-217.5z" fill="#474c75"/><path d="m465.991 166.983h-30l-65.5 45 65.5 45h30z" fill="#ffcd5e"/><path d="m300.991 166.983h135v90h-135z" fill="#ffe669"/><path d="m218.491 130.237v-27.314c0-4.143-3.358-7.5-7.5-7.5h-60c-4.142 0-7.5 3.357-7.5 7.5v26.56h-37.922l-6.223-107.442c-.716-12.359-10.975-22.041-23.355-22.041s-22.639 9.682-23.354 22.041l-6.224 107.441h-.422c-20.678 0-37.5 16.822-37.5 37.5v307.5c0 20.678 16.822 37.5 37.5 37.5h165c20.678 0 37.5-16.822 37.5-37.5v-307.5c0-18.109-12.904-33.261-30-36.745zm-15-.755h-15v-19.06h15zm-45-19.059h15v19.06h-15zm-90.88-87.515c.257-4.434 3.938-7.908 8.38-7.908s8.123 3.474 8.38 7.908l6.173 106.574h-29.106zm-44.12 451.574v-174.674c9.377 6.999 15 17.975 15 29.986v30c0 4.143 3.358 7.5 7.5 7.5s7.5-3.357 7.5-7.5v-30c0-20.013-11.12-38.006-29.021-46.957l-.979-.49v-115.365c0-12.406 10.093-22.5 22.5-22.5h165c12.407 0 22.5 10.094 22.5 22.5v115.365l-.979.49c-17.901 8.951-29.021 26.944-29.021 46.957v144.688c0 12.406-10.093 22.5-22.5 22.5h-105c-12.407 0-22.5-10.094-22.5-22.5v-84.688c0-4.143-3.358-7.5-7.5-7.5s-7.5 3.357-7.5 7.5v84.688c0 8.436 2.801 16.228 7.52 22.5-12.427 0-22.52-10.093-22.52-22.5zm187.5 22.5c4.699-6.272 7.5-14.064 7.5-22.5v-144.688c0-12.011 5.623-22.987 15-29.986v174.674c0 12.407-10.093 22.5-22.5 22.5z"/><path d="m218.491 256.982v-90c0-4.143-3.358-7.5-7.5-7.5h-165c-4.142 0-7.5 3.357-7.5 7.5v90c0 4.143 3.358 7.5 7.5 7.5h165c4.142 0 7.5-3.357 7.5-7.5zm-15-7.5h-150v-75h150z"/><path d="m180.991 322.294h-105c-4.142 0-7.5 3.357-7.5 7.5s3.358 7.5 7.5 7.5h105c4.142 0 7.5-3.357 7.5-7.5s-3.358-7.5-7.5-7.5z"/><path d="m180.991 352.294h-105c-4.142 0-7.5 3.357-7.5 7.5s3.358 7.5 7.5 7.5h105c4.142 0 7.5-3.357 7.5-7.5s-3.358-7.5-7.5-7.5z"/><path d="m180.991 382.294h-105c-4.142 0-7.5 3.357-7.5 7.5s3.358 7.5 7.5 7.5h105c4.142 0 7.5-3.357 7.5-7.5s-3.358-7.5-7.5-7.5z"/><path d="m473.491 130.237v-27.314c0-4.143-3.357-7.5-7.5-7.5h-60c-4.143 0-7.5 3.357-7.5 7.5v26.56h-37.922l-6.224-107.441c-.714-12.36-10.973-22.042-23.354-22.042s-22.64 9.682-23.354 22.041l-6.224 107.441h-.422c-20.678 0-37.5 16.822-37.5 37.5v307.5c0 20.678 16.822 37.5 37.5 37.5h165c20.678 0 37.5-16.822 37.5-37.5v-307.5c0-18.109-12.904-33.261-30-36.745zm-15-.755h-15v-19.06h15zm-45-19.059h15v19.06h-15zm-90.88-87.515c.257-4.435 3.938-7.908 8.38-7.908s8.123 3.474 8.38 7.908l6.173 106.574h-29.106zm-21.62 121.574h165c12.406 0 22.5 10.094 22.5 22.5v115.365l-.979.49c-17.9 8.951-29.021 26.943-29.021 46.957v144.688c0 12.406-10.094 22.5-22.5 22.5h-105c-12.406 0-22.5-10.094-22.5-22.5v-144.688c0-20.014-11.12-38.007-29.021-46.957l-.979-.489v-115.366c0-12.406 10.094-22.5 22.5-22.5zm-22.5 330v-174.674c9.377 6.999 15 17.975 15 29.986v144.688c0 8.436 2.801 16.228 7.52 22.5-12.426 0-22.52-10.093-22.52-22.5zm187.5 22.5c4.699-6.272 7.5-14.064 7.5-22.5v-144.688c0-12.011 5.623-22.988 15-29.986v174.675c0 12.406-10.094 22.499-22.5 22.499z"/><path d="m300.991 264.482h165c4.143 0 7.5-3.357 7.5-7.5v-90c0-4.143-3.357-7.5-7.5-7.5h-165c-4.143 0-7.5 3.357-7.5 7.5v90c0 4.143 3.358 7.5 7.5 7.5zm7.5-90h150v75h-150z"/><path d="m435.991 322.294h-105c-4.143 0-7.5 3.357-7.5 7.5s3.357 7.5 7.5 7.5h105c4.143 0 7.5-3.357 7.5-7.5s-3.357-7.5-7.5-7.5z"/><path d="m435.991 352.294h-105c-4.143 0-7.5 3.357-7.5 7.5s3.357 7.5 7.5 7.5h105c4.143 0 7.5-3.357 7.5-7.5s-3.357-7.5-7.5-7.5z"/><path d="m435.991 382.294h-105c-4.143 0-7.5 3.357-7.5 7.5s3.357 7.5 7.5 7.5h105c4.143 0 7.5-3.357 7.5-7.5s-3.357-7.5-7.5-7.5z"/></g></svg>