<?xml version="1.0" ?><!DOCTYPE svg  PUBLIC '-//W3C//DTD SVG 1.1//EN'  'http://www.w3.org/Graphics/SVG/1.1/DTD/svg11.dtd'><svg enable-background="new 0 0 50 50" id="Layer_1" version="1.1" viewBox="0 0 50 50" xml:space="preserve" xmlns="http://www.w3.org/2000/svg" xmlns:xlink="http://www.w3.org/1999/xlink"><g><linearGradient gradientUnits="userSpaceOnUse" id="SVGID_1_" x1="1" x2="49" y1="25" y2="25"><stop offset="0" style="stop-color:#616976"/><stop offset="1" style="stop-color:#474D56"/></linearGradient><circle cx="25" cy="25" fill="url(#SVGID_1_)" r="24"/><g><g><g><path d="M18.2569,37.1196v0.76h-5.85v-0.76c0-0.72,0.58-1.29,1.2899-1.29h3.27      C17.6768,35.8296,18.2569,36.3996,18.2569,37.1196z" fill="#DBDFE5"/><rect fill="#FFFFFF" height="22.2866" width="2.3502" x="14.1583" y="13.5394"/></g><g><path d="M37.593,37.1196v0.76h-5.85v-0.76c0-0.72,0.58-1.29,1.2899-1.29h3.27      C37.0129,35.8296,37.593,36.3996,37.593,37.1196z" fill="#DBDFE5"/><rect fill="#FFFFFF" height="22.2866" width="2.3502" x="33.4944" y="13.5394"/></g></g><g><path d="M36.6132,24.7482H13.3867c-0.3716,0-0.6729,0.3013-0.6729,0.6729v5.0304     c0,0.3716,0.3013,0.6729,0.6729,0.6729h23.2264c0.3717,0,0.673-0.3013,0.673-0.6729v-5.0304     C37.2861,25.0494,36.9849,24.7482,36.6132,24.7482z" fill="#F3CD4C"/><g><g><polygon fill="#F05543" points="18.5449,31.1244 16.8179,31.1244 14.2416,24.7482 15.9686,24.7482      "/><polygon fill="#F05543" points="22.8483,31.1244 21.1212,31.1244 18.5449,24.7482 20.272,24.7482      "/><polygon fill="#F05543" points="27.1517,31.1244 25.4246,31.1244 22.8483,24.7482 24.5753,24.7482      "/><polygon fill="#F05543" points="31.455,31.1244 29.728,31.1244 27.1517,24.7482 28.8787,24.7482      "/></g><polygon fill="#F05543" points="35.7584,31.1244 34.0313,31.1244 31.455,24.7482 33.1821,24.7482     "/></g></g><g><path d="M36.6132,17.0082H13.3867c-0.3716,0-0.6729,0.3013-0.6729,0.6729v5.0304     c0,0.3716,0.3013,0.6729,0.6729,0.6729h23.2264c0.3717,0,0.673-0.3013,0.673-0.6729v-5.0304     C37.2861,17.3094,36.9849,17.0082,36.6132,17.0082z" fill="#F3CD4C"/><g><g><polygon fill="#F05543" points="18.5449,23.3844 16.8179,23.3844 14.2416,17.0082 15.9686,17.0082      "/><polygon fill="#F05543" points="22.8483,23.3844 21.1212,23.3844 18.5449,17.0082 20.272,17.0082      "/><polygon fill="#F05543" points="27.1517,23.3844 25.4246,23.3844 22.8483,17.0082 24.5753,17.0082      "/><polygon fill="#F05543" points="31.455,23.3844 29.728,23.3844 27.1517,17.0082 28.8787,17.0082      "/></g><polygon fill="#F05543" points="35.7584,23.3844 34.0313,23.3844 31.455,17.0082 33.1821,17.0082     "/></g></g><g><circle cx="15.3335" cy="13.5394" fill="#5EB5E5" r="1.9393"/><circle cx="34.8315" cy="13.5394" fill="#5EB5E5" r="1.9393"/></g></g></g></svg>