<?xml version="1.0" ?><!DOCTYPE svg  PUBLIC '-//W3C//DTD SVG 1.1//EN'  'http://www.w3.org/Graphics/SVG/1.1/DTD/svg11.dtd'><svg enable-background="new 0 0 512 512" height="512px" id="Layer_1" version="1.1" viewBox="0 0 512 512" width="512px" xml:space="preserve" xmlns="http://www.w3.org/2000/svg" xmlns:xlink="http://www.w3.org/1999/xlink"><linearGradient gradientUnits="userSpaceOnUse" id="SVGID_1_" x1="255.9995" x2="255.9995" y1="0" y2="512.0005"><stop offset="0" style="stop-color:#E84D4D"/><stop offset="1" style="stop-color:#B82626"/></linearGradient><path d="M0,91.561C0,41.264,41.546,0,91.843,0h329.095C471.253,0,512,41.264,512,91.561v329.077  C512,470.954,471.253,512,420.938,512H91.843C41.546,512,0,470.954,0,420.638V91.561z" fill="url(#SVGID_1_)"/><path d="M256.382,64.122c-106.023,0-191.943,85.956-191.943,191.96c0,106.039,85.92,191.994,191.943,191.994  c106.039,0,191.959-85.955,191.959-191.994C448.342,150.078,362.421,64.122,256.382,64.122 M256.382,405.436  c-82.455,0-149.317-66.862-149.317-149.353c0-82.438,66.862-149.3,149.317-149.3c82.455,0,149.281,66.862,149.281,149.3  C405.663,338.573,338.837,405.436,256.382,405.436 M288,352h-64V160h64V352z" fill="#FFFFFF"/></svg>