<?xml version="1.0" ?><!DOCTYPE svg  PUBLIC '-//W3C//DTD SVG 1.1//EN'  'http://www.w3.org/Graphics/SVG/1.1/DTD/svg11.dtd'><svg enable-background="new 0 0 400 400" height="400px" id="Layer_1" version="1.1" viewBox="0 0 400 400" width="400px" xml:space="preserve" xmlns="http://www.w3.org/2000/svg" xmlns:xlink="http://www.w3.org/1999/xlink"><circle cx="200.004" cy="201" fill="#C90000" r="200"/><path d="M81.824,223.255c11.488,65.166,73.85,108.831,139.017,97.34c65.164-11.491,108.825-73.85,97.335-139.015  c-11.488-65.164-73.847-108.832-139.013-97.341C113.998,95.731,70.334,158.092,81.824,223.255z M185.591,120.688  c45.072-7.947,88.199,22.25,96.145,67.321c2.989,16.958,0.573,33.639-5.991,48.272L142.273,142.83  C153.782,131.652,168.632,123.679,185.591,120.688z M257.728,262.009c-11.51,11.178-26.36,19.152-43.313,22.142  c-45.074,7.947-88.196-22.252-96.143-67.323c-2.99-16.959-0.575-33.636,5.988-48.273L257.728,262.009z" fill="#FCFCFC"/></svg>