<?xml version="1.0" ?><!DOCTYPE svg  PUBLIC '-//W3C//DTD SVG 1.0//EN'  'http://www.w3.org/TR/2001/REC-SVG-20010904/DTD/svg10.dtd'><svg height="110px" style="enable-background:new 0 0 110 110;" version="1.0" viewBox="0 0 110 110" width="110px" xml:space="preserve" xmlns="http://www.w3.org/2000/svg" xmlns:xlink="http://www.w3.org/1999/xlink"><g id="Artboard"/><g id="Multicolor"><circle cx="55" cy="55" r="55" style="fill:#E04F5F;"/><g><path d="M71,83h8V69c0-1.105-0.895-2-2-2h-4c-1.105,0-2,0.895-2,2V83z" style="fill:#F3B607;"/><path d="M59,83h8V61c0-1.105-0.895-2-2-2h-4c-1.105,0-2,0.895-2,2V83z" style="fill:#F3B607;"/><path d="M47,83h8V53c0-1.105-0.895-2-2-2h-4c-1.105,0-2,0.895-2,2V83z" style="fill:#F3B607;"/><path d="M35,83h8V45c0-1.105-0.895-2-2-2h-4c-1.105,0-2,0.895-2,2V83z" style="fill:#F3B607;"/><path d="M85,83H27V25c0-1.104-0.896-2-2-2s-2,0.896-2,2v62h62c1.104,0,2-0.896,2-2S86.104,83,85,83z" style="fill:#F0F1F1;"/><polygon points="63.835,54.794 81.237,57 79.031,39.598 74.092,44.538 49.471,23.273 48,24.743     68.992,49.637   " style="fill:#FBE158;"/></g></g></svg>