<svg xmlns="http://www.w3.org/2000/svg" viewBox="0 0 376.16 455.38"><defs><style>.cls-1{fill:red;}.cls-2{fill:#e6e6e6;stroke:#ccc;}.cls-2,.cls-3{stroke-miterlimit:10;}.cls-3{fill:none;stroke:#000;stroke-width:3px;}</style></defs><title>Asset 4</title><g id="Layer_2" data-name="Layer 2"><g id="Layer_1-2" data-name="Layer 1"><path class="cls-1" d="M91.79,331.46c115.85,103.92,251.72-.21,250.92-72.23,8.73,18.3,14.57,63.24,14.57,63.24,11.08-65.81,4.16-108.31-7.65-123.69-10.36-11.13-16.69-12.91-29.27-18.88a1.74,1.74,0,0,0-2.32,1.22c-.55,2.26-.88,6.82-1.37,12.94-5.33,66.13-63.77,115.46-129.79,108.85-57.66-5.77-94.07-22.28-131.35-68.54l4.56-19.26a5.22,5.22,0,0,0-1.52-5L21.34,190.32s-.9,124.57,148.23,155.17c0,0-46.2,0-77.78-14"/><path d="M284.38,43.85c-115.86-103.93-251.73.2-250.93,72.22C24.72,97.78,18.88,52.84,18.88,52.84c-11.08,65.81-4.15,108.3,7.65,123.68,10.36,11.13,16.69,12.91,29.27,18.88a1.74,1.74,0,0,0,2.32-1.21c.55-2.26.88-6.83,1.37-12.94C64.82,115.11,123.26,65.79,189.28,72.4c57.66,5.77,94.08,22.27,131.35,68.53l-4.56,19.27a5.19,5.19,0,0,0,1.53,5L354.82,185s.9-124.56-148.23-155.17c0,0,46.2,0,77.79,14"/><circle class="cls-2" cx="188.08" cy="187.65" r="31.12"/><circle class="cls-2" cx="188.08" cy="187.65" r="31.12"/><circle class="cls-2" cx="161.11" cy="125.92" r="20.75"/><circle class="cls-2" cx="224.34" cy="127.48" r="16.6"/><circle class="cls-2" cx="264.39" cy="156.53" r="12.45"/><circle class="cls-2" cx="285.14" cy="186.44" r="8.3"/><circle class="cls-2" cx="215.05" cy="249.38" r="20.75"/><circle class="cls-2" cx="151.82" cy="247.82" r="16.6"/><circle class="cls-2" cx="111.77" cy="218.77" r="12.45"/><circle class="cls-2" cx="91.02" cy="188.86" r="8.3"/><path class="cls-1" d="M33.69,436.26a17,17,0,0,1-11.93,4.79A21.14,21.14,0,0,1,6.41,434.6a22.4,22.4,0,0,1-4.69-7.37A25.25,25.25,0,0,1,0,417.76,22.72,22.72,0,0,1,1.72,409a22.21,22.21,0,0,1,4.76-7.21,22.46,22.46,0,0,1,16.11-6.63,22.26,22.26,0,0,1,11,2.64A17.29,17.29,0,0,1,40.71,405l-7.79,5.87a11.14,11.14,0,0,0-4.43-4.76,12.36,12.36,0,0,0-6.29-1.69,10.65,10.65,0,0,0-4.75,1.05,10.88,10.88,0,0,0-3.67,2.94,13.62,13.62,0,0,0-2.36,4.37,17,17,0,0,0-.83,5.36,15.76,15.76,0,0,0,.9,5.42A13.16,13.16,0,0,0,14,427.87a11.25,11.25,0,0,0,8.68,3.86c4.09,0,7.76-1.89,11-5.68v-1.4H24.88v-7.59H42.37v23.67H33.69Z"/><path class="cls-1" d="M76.28,431.54v9.19H44.44V395.42H75.71v9.19H54.91v8.81H72.77v8.49H54.91v9.63Z"/><path class="cls-1" d="M77.85,440.73V395.42H88.31V415l16.59-19.53h11.74l-17,20.23,18.12,25.08H105.86L93,422.48l-4.72,4.91v13.34Z"/><path class="cls-1" d="M117.56,440.73V395.42H128V415l16.59-19.53h11.74l-17,20.23,18.12,25.08H145.57l-12.82-18.25L128,427.39v13.34Z"/><path class="cls-1" d="M172.29,441.11a21,21,0,0,1-9.19-2,22.65,22.65,0,0,1-7.09-5.2,23.87,23.87,0,0,1-4.56-7.37,23.28,23.28,0,0,1-1.63-8.55,22.55,22.55,0,0,1,1.7-8.61,22.86,22.86,0,0,1,4.72-7.31,23.14,23.14,0,0,1,7.18-5,21.71,21.71,0,0,1,9.06-1.88,21.08,21.08,0,0,1,9.19,2,22.5,22.5,0,0,1,7.08,5.23,23.9,23.9,0,0,1,4.53,7.4,23.36,23.36,0,0,1,1.59,8.42,22.59,22.59,0,0,1-1.69,8.62,23,23,0,0,1-11.83,12.38A21.48,21.48,0,0,1,172.29,441.11Zm-11.81-23a16.93,16.93,0,0,0,.77,5.07,13.44,13.44,0,0,0,2.26,4.37,11.2,11.2,0,0,0,3.74,3.07,11,11,0,0,0,5.1,1.15,10.78,10.78,0,0,0,5.23-1.22,11.23,11.23,0,0,0,3.7-3.16,13.67,13.67,0,0,0,2.2-4.4,17.42,17.42,0,0,0,.74-5,17,17,0,0,0-.77-5.07,12.73,12.73,0,0,0-2.3-4.34,11.5,11.5,0,0,0-3.73-3,11.13,11.13,0,0,0-5.07-1.12,10.82,10.82,0,0,0-5.2,1.19,11.44,11.44,0,0,0-3.7,3.09,13.12,13.12,0,0,0-2.24,4.37A17.76,17.76,0,0,0,160.48,418.14Z"/><path d="M223,411V424a2.18,2.18,0,0,1-.42,1.45,1.32,1.32,0,0,1-1,.5,1.48,1.48,0,0,1-1-.44,1.7,1.7,0,0,1-.49-1.2l-.5-5.66H206.62v18.8H220a1.72,1.72,0,0,1,1.3.48,1.59,1.59,0,0,1,.46,1.12,1.66,1.66,0,0,1-.46,1.17,1.67,1.67,0,0,1-1.26.48H196.5a2,2,0,0,1-1.43-.5,1.53,1.53,0,0,1-.52-1.15,1.46,1.46,0,0,1,.52-1.12,1.94,1.94,0,0,1,1.39-.48H203V399.27H197.8a1.83,1.83,0,0,1-1.36-.48,1.54,1.54,0,0,1-.48-1.13,1.61,1.61,0,0,1,.52-1.18,1.92,1.92,0,0,1,1.39-.5h34a2.18,2.18,0,0,1,1.55.56,2,2,0,0,1,.59,1.51v10.31a1.65,1.65,0,0,1-.46,1.25,1.5,1.5,0,0,1-1.07.43,1.67,1.67,0,0,1-1.09-.38,1.36,1.36,0,0,1-.51-1.07l-.54-9.32H206.62v16.47H219.5l.5-5.08a2,2,0,0,1,.51-1.26,1.36,1.36,0,0,1,1-.46,1.3,1.3,0,0,1,1,.51A2.36,2.36,0,0,1,223,411Z"/><path d="M268.68,396h10a2.14,2.14,0,0,1,1.43.44,1.34,1.34,0,0,1,.52,1.05,1.27,1.27,0,0,1-.5,1,2.06,2.06,0,0,1-1.37.42h-2.11l-12.34,20.9v17.65h8.87a1.81,1.81,0,0,1,1.35.48,1.54,1.54,0,0,1,.48,1.13,1.58,1.58,0,0,1-.51,1.18,2,2,0,0,1-1.4.5H250.72a2,2,0,0,1-1.45-.5,1.54,1.54,0,0,1-.54-1.18,1.47,1.47,0,0,1,.52-1.13,2,2,0,0,1,1.39-.48h10V419.6l-12.8-20.71H244.6a2.09,2.09,0,0,1-1.39-.44,1.31,1.31,0,0,1-.52-1,1.3,1.3,0,0,1,.54-1,2.18,2.18,0,0,1,1.41-.44h12.61a2.14,2.14,0,0,1,1.43.44,1.3,1.3,0,0,1,.52,1,1.28,1.28,0,0,1-.52,1,2.07,2.07,0,0,1-1.39.44h-5.2l10.55,17.65,10.24-17.65h-4.24a2.11,2.11,0,0,1-1.4-.44,1.25,1.25,0,0,1,0-2A2.19,2.19,0,0,1,268.68,396Z"/><path d="M308.61,437.59a2,2,0,0,1,1.37.46,1.46,1.46,0,0,1,0,2.2,1.94,1.94,0,0,1-1.41.48H293.32a2,2,0,0,1-1.43-.48,1.44,1.44,0,0,1,0-2.2,2,2,0,0,1,1.41-.46h4.78V399.27h-3.71a2,2,0,0,1-1.39-.48,1.5,1.5,0,0,1-.52-1.13,1.61,1.61,0,0,1,.52-1.18,2,2,0,0,1,1.43-.5h12.23a46,46,0,0,1,10.16.94,11.38,11.38,0,0,1,6.29,3.59c1.52,1.77,2.27,4.31,2.27,7.62a9.81,9.81,0,0,1-2.23,6.67,13.52,13.52,0,0,1-5.64,3.84l7.8,18.95h3.21a3.12,3.12,0,0,1,1.89.44,1.35,1.35,0,0,1,.55,1.09,1.42,1.42,0,0,1-.57,1.15,2.93,2.93,0,0,1-1.84.46h-9a2,2,0,0,1-1.44-.48,1.49,1.49,0,0,1-.51-1.13,1.43,1.43,0,0,1,.49-1.07,2,2,0,0,1,1.38-.46h2l-6.88-18.11a15,15,0,0,1-2.6.35c-1.45.12-2.62.19-3.51.19h-6.69v17.57Zm-6.88-38.32v17.81h4.09a48.62,48.62,0,0,0,8.69-.63,9.83,9.83,0,0,0,5.25-2.53,7.41,7.41,0,0,0,1.92-5.52,9.44,9.44,0,0,0-1.5-5.81,7.66,7.66,0,0,0-4.66-2.63,44.43,44.43,0,0,0-8.94-.69Z"/><path d="M364.7,411V424a2.18,2.18,0,0,1-.42,1.45,1.32,1.32,0,0,1-1,.5,1.44,1.44,0,0,1-1-.44,1.66,1.66,0,0,1-.5-1.2l-.5-5.66H348.77v18.8h23.5l.61-9.59a1.44,1.44,0,0,1,.53-1.07,1.72,1.72,0,0,1,1.15-.42,1.47,1.47,0,0,1,1.12.51,2.11,2.11,0,0,1,.48,1.48V438.7a1.91,1.91,0,0,1-.59,1.49,2.2,2.2,0,0,1-1.55.54H338.64a2,2,0,0,1-1.43-.5,1.53,1.53,0,0,1-.52-1.15,1.46,1.46,0,0,1,.52-1.12,2,2,0,0,1,1.39-.48h6.5V399.27h-5.16a1.83,1.83,0,0,1-1.36-.48,1.54,1.54,0,0,1-.48-1.13,1.61,1.61,0,0,1,.52-1.18,1.93,1.93,0,0,1,1.4-.5h33.54a2.17,2.17,0,0,1,1.55.56,1.94,1.94,0,0,1,.59,1.51v10.31a1.65,1.65,0,0,1-.46,1.25,1.49,1.49,0,0,1-1.07.43,1.64,1.64,0,0,1-1.08-.38,1.4,1.4,0,0,1-.52-1.07l-.54-9.32H348.77v16.47h12.45l.5-5.08a2,2,0,0,1,.51-1.26,1.36,1.36,0,0,1,1-.46,1.3,1.3,0,0,1,1,.51A2.36,2.36,0,0,1,364.7,411Z"/><line class="cls-3" y1="383.48" x2="376.16" y2="383.48"/><line class="cls-3" x1="376.16" y1="453.88" y2="453.88"/></g></g></svg>